<svg width="22" height="23" viewBox="0 0 22 23" fill="none" xmlns="http://www.w3.org/2000/svg">
<path d="M8.16214 22.1473C8.71295 22.1473 9.25139 21.9839 9.70937 21.6779C10.1674 21.3719 10.5243 20.937 10.7351 20.4281C10.9459 19.9192 11.001 19.3592 10.8936 18.819C10.7861 18.2788 10.5209 17.7826 10.1314 17.3931C9.74191 17.0036 9.24568 16.7384 8.70546 16.6309C8.16523 16.5234 7.60527 16.5786 7.09639 16.7894C6.58751 17.0002 6.15256 17.3571 5.84654 17.8151C5.54053 18.2731 5.3772 18.8115 5.3772 19.3623C5.37852 20.1005 5.67236 20.8081 6.19435 21.3301C6.71634 21.8521 7.42393 22.146 8.16214 22.1473ZM8.16214 18.5821C8.31597 18.5821 8.46634 18.6277 8.59425 18.7131C8.72215 18.7986 8.82184 18.9201 8.88071 19.0622C8.93958 19.2043 8.95498 19.3607 8.92497 19.5116C8.89496 19.6624 8.82089 19.801 8.71211 19.9098C8.60334 20.0186 8.46475 20.0926 8.31388 20.1227C8.163 20.1527 8.00662 20.1373 7.8645 20.0784C7.72238 20.0195 7.60091 19.9198 7.51544 19.7919C7.42998 19.664 7.38436 19.5137 7.38436 19.3598C7.38503 19.1538 7.46718 18.9563 7.6129 18.8106C7.75862 18.6649 7.95606 18.5827 8.16214 18.5821Z" fill="white"/>
<path d="M20.0347 19.3623C20.0347 18.8115 19.8714 18.2731 19.5654 17.8151C19.2594 17.3571 18.8244 17.0002 18.3155 16.7894C17.8067 16.5786 17.2467 16.5234 16.7065 16.6309C16.1662 16.7384 15.67 17.0036 15.2805 17.3931C14.8911 17.7826 14.6258 18.2788 14.5184 18.819C14.4109 19.3592 14.4661 19.9192 14.6768 20.4281C14.8876 20.937 15.2446 21.3719 15.7026 21.6779C16.1605 21.9839 16.699 22.1473 17.2498 22.1473C17.988 22.146 18.6956 21.8521 19.2176 21.3301C19.7396 20.8081 20.0334 20.1005 20.0347 19.3623ZM16.4695 19.3623C16.4695 19.2085 16.5151 19.0581 16.6006 18.9302C16.686 18.8023 16.8075 18.7026 16.9496 18.6438C17.0918 18.5849 17.2481 18.5695 17.399 18.5995C17.5499 18.6295 17.6885 18.7036 17.7973 18.8124C17.906 18.9211 17.9801 19.0597 18.0101 19.2106C18.0401 19.3615 18.0247 19.5179 17.9659 19.66C17.907 19.8021 17.8073 19.9236 17.6794 20.009C17.5515 20.0945 17.4011 20.1401 17.2473 20.1401C17.0429 20.1368 16.8481 20.0535 16.7045 19.9081C16.5609 19.7626 16.4802 19.5667 16.4795 19.3623H16.4695Z" fill="white"/>
<path d="M4.49764 0.923096H0.0769043V3.26831H2.61267L5.37709 15.909H20.5389L21.2308 5.78062H5.56471L4.49764 0.923096ZM18.7214 8.12584L18.3491 13.5638H7.27379L6.07772 8.12584H18.7214Z" fill="white"/>
</svg>
