<svg width="34" height="37" viewBox="0 0 34 37" fill="none" xmlns="http://www.w3.org/2000/svg">
<mask id="path-1-outside-1" maskUnits="userSpaceOnUse" x="3.04346" y="5.57971" width="28" height="28" fill="black">
<rect fill="white" x="3.04346" y="5.57971" width="28" height="28"/>
<path d="M17.2319 32.9565C9.95998 32.9565 4.04346 27.0405 4.04346 19.7681C4.04346 12.4962 9.95998 6.57971 17.2319 6.57971C24.5043 6.57971 30.4203 12.4962 30.4203 19.7681C30.4203 27.0405 24.5043 32.9565 17.2319 32.9565ZM17.2319 7.5942C10.5195 7.5942 5.05795 13.0557 5.05795 19.7681C5.05795 26.4805 10.5195 31.942 17.2319 31.942C23.9443 31.942 29.4058 26.4805 29.4058 19.7681C29.4058 13.0557 23.9443 7.5942 17.2319 7.5942Z"/>
</mask>
<path d="M17.2319 32.9565C9.95998 32.9565 4.04346 27.0405 4.04346 19.7681C4.04346 12.4962 9.95998 6.57971 17.2319 6.57971C24.5043 6.57971 30.4203 12.4962 30.4203 19.7681C30.4203 27.0405 24.5043 32.9565 17.2319 32.9565ZM17.2319 7.5942C10.5195 7.5942 5.05795 13.0557 5.05795 19.7681C5.05795 26.4805 10.5195 31.942 17.2319 31.942C23.9443 31.942 29.4058 26.4805 29.4058 19.7681C29.4058 13.0557 23.9443 7.5942 17.2319 7.5942Z" fill="#5259F3"/>
<path d="M17.2319 32.9565C9.95998 32.9565 4.04346 27.0405 4.04346 19.7681C4.04346 12.4962 9.95998 6.57971 17.2319 6.57971C24.5043 6.57971 30.4203 12.4962 30.4203 19.7681C30.4203 27.0405 24.5043 32.9565 17.2319 32.9565ZM17.2319 7.5942C10.5195 7.5942 5.05795 13.0557 5.05795 19.7681C5.05795 26.4805 10.5195 31.942 17.2319 31.942C23.9443 31.942 29.4058 26.4805 29.4058 19.7681C29.4058 13.0557 23.9443 7.5942 17.2319 7.5942Z" stroke="#5259F3" stroke-width="0.6" mask="url(#path-1-outside-1)"/>
<mask id="path-2-outside-2" maskUnits="userSpaceOnUse" x="0" y="0" width="34" height="37" fill="black">
<rect fill="white" width="34" height="37"/>
<path d="M29.0543 8.66297L29.4271 8.29065L29.7857 8.64978C29.8811 8.74515 30.0094 8.79841 30.1443 8.79841C30.2793 8.79841 30.4081 8.74515 30.503 8.64978L31.5788 7.57391C31.7772 7.37558 31.7772 7.055 31.5788 6.85667L30.1443 5.42167C30.049 5.3263 29.9207 5.27304 29.7857 5.27304C29.6508 5.27304 29.522 5.3263 29.4271 5.42167L28.3512 6.49754C28.1529 6.69587 28.1529 7.01645 28.3512 7.21478L28.7099 7.57341L28.337 7.94623C25.779 5.54138 22.4443 3.95471 18.7536 3.60978V2.01449H19.2609C19.5414 2.01449 19.7681 1.78725 19.7681 1.50725C19.7681 1.22725 19.5414 1 19.2609 1H18.2464H16.2174H15.2029C14.9229 1 14.6957 1.22725 14.6957 1.50725C14.6957 1.78725 14.9229 2.01449 15.2029 2.01449H15.7101V3.60978C12.0189 3.95471 8.68478 5.54138 6.12674 7.94572L5.75442 7.57341L6.11304 7.21427C6.31138 7.01594 6.31138 6.69536 6.11304 6.49703L5.03717 5.42116C4.84696 5.23094 4.51014 5.23094 4.31993 5.42116L2.88493 6.85616C2.78956 6.95152 2.7363 7.08036 2.7363 7.21478C2.7363 7.3492 2.78956 7.47855 2.88493 7.57341L3.9613 8.64928C4.05667 8.74464 4.18551 8.7979 4.31993 8.7979C4.45435 8.7979 4.5837 8.74464 4.67855 8.64928L5.03717 8.29015L5.40949 8.66246C2.67848 11.5685 1 15.4753 1 19.7681C1 28.7185 8.28152 36 17.2319 36C26.1822 36 33.4638 28.7185 33.4638 19.7681C33.4638 15.4753 31.7853 11.5685 29.0543 8.66297ZM29.7857 6.49703L30.503 7.21478L30.1443 7.57341L29.4271 6.85565L29.7857 6.49703ZM4.31942 7.57341L3.96029 7.21478L4.67804 6.49703L5.03667 6.85565L4.31942 7.57341ZM16.7246 3.53623V2.01449H17.7391V3.53623H16.7246ZM17.2319 34.9855C8.84101 34.9855 2.01449 28.159 2.01449 19.7681C2.01449 11.3772 8.84101 4.55072 17.2319 4.55072C25.6228 4.55072 32.4493 11.3772 32.4493 19.7681C32.4493 28.159 25.6228 34.9855 17.2319 34.9855Z"/>
</mask>
<path d="M29.0543 8.66297L29.4271 8.29065L29.7857 8.64978C29.8811 8.74515 30.0094 8.79841 30.1443 8.79841C30.2793 8.79841 30.4081 8.74515 30.503 8.64978L31.5788 7.57391C31.7772 7.37558 31.7772 7.055 31.5788 6.85667L30.1443 5.42167C30.049 5.3263 29.9207 5.27304 29.7857 5.27304C29.6508 5.27304 29.522 5.3263 29.4271 5.42167L28.3512 6.49754C28.1529 6.69587 28.1529 7.01645 28.3512 7.21478L28.7099 7.57341L28.337 7.94623C25.779 5.54138 22.4443 3.95471 18.7536 3.60978V2.01449H19.2609C19.5414 2.01449 19.7681 1.78725 19.7681 1.50725C19.7681 1.22725 19.5414 1 19.2609 1H18.2464H16.2174H15.2029C14.9229 1 14.6957 1.22725 14.6957 1.50725C14.6957 1.78725 14.9229 2.01449 15.2029 2.01449H15.7101V3.60978C12.0189 3.95471 8.68478 5.54138 6.12674 7.94572L5.75442 7.57341L6.11304 7.21427C6.31138 7.01594 6.31138 6.69536 6.11304 6.49703L5.03717 5.42116C4.84696 5.23094 4.51014 5.23094 4.31993 5.42116L2.88493 6.85616C2.78956 6.95152 2.7363 7.08036 2.7363 7.21478C2.7363 7.3492 2.78956 7.47855 2.88493 7.57341L3.9613 8.64928C4.05667 8.74464 4.18551 8.7979 4.31993 8.7979C4.45435 8.7979 4.5837 8.74464 4.67855 8.64928L5.03717 8.29015L5.40949 8.66246C2.67848 11.5685 1 15.4753 1 19.7681C1 28.7185 8.28152 36 17.2319 36C26.1822 36 33.4638 28.7185 33.4638 19.7681C33.4638 15.4753 31.7853 11.5685 29.0543 8.66297ZM29.7857 6.49703L30.503 7.21478L30.1443 7.57341L29.4271 6.85565L29.7857 6.49703ZM4.31942 7.57341L3.96029 7.21478L4.67804 6.49703L5.03667 6.85565L4.31942 7.57341ZM16.7246 3.53623V2.01449H17.7391V3.53623H16.7246ZM17.2319 34.9855C8.84101 34.9855 2.01449 28.159 2.01449 19.7681C2.01449 11.3772 8.84101 4.55072 17.2319 4.55072C25.6228 4.55072 32.4493 11.3772 32.4493 19.7681C32.4493 28.159 25.6228 34.9855 17.2319 34.9855Z" fill="#5259F3"/>
<path d="M29.0543 8.66297L29.4271 8.29065L29.7857 8.64978C29.8811 8.74515 30.0094 8.79841 30.1443 8.79841C30.2793 8.79841 30.4081 8.74515 30.503 8.64978L31.5788 7.57391C31.7772 7.37558 31.7772 7.055 31.5788 6.85667L30.1443 5.42167C30.049 5.3263 29.9207 5.27304 29.7857 5.27304C29.6508 5.27304 29.522 5.3263 29.4271 5.42167L28.3512 6.49754C28.1529 6.69587 28.1529 7.01645 28.3512 7.21478L28.7099 7.57341L28.337 7.94623C25.779 5.54138 22.4443 3.95471 18.7536 3.60978V2.01449H19.2609C19.5414 2.01449 19.7681 1.78725 19.7681 1.50725C19.7681 1.22725 19.5414 1 19.2609 1H18.2464H16.2174H15.2029C14.9229 1 14.6957 1.22725 14.6957 1.50725C14.6957 1.78725 14.9229 2.01449 15.2029 2.01449H15.7101V3.60978C12.0189 3.95471 8.68478 5.54138 6.12674 7.94572L5.75442 7.57341L6.11304 7.21427C6.31138 7.01594 6.31138 6.69536 6.11304 6.49703L5.03717 5.42116C4.84696 5.23094 4.51014 5.23094 4.31993 5.42116L2.88493 6.85616C2.78956 6.95152 2.7363 7.08036 2.7363 7.21478C2.7363 7.3492 2.78956 7.47855 2.88493 7.57341L3.9613 8.64928C4.05667 8.74464 4.18551 8.7979 4.31993 8.7979C4.45435 8.7979 4.5837 8.74464 4.67855 8.64928L5.03717 8.29015L5.40949 8.66246C2.67848 11.5685 1 15.4753 1 19.7681C1 28.7185 8.28152 36 17.2319 36C26.1822 36 33.4638 28.7185 33.4638 19.7681C33.4638 15.4753 31.7853 11.5685 29.0543 8.66297ZM29.7857 6.49703L30.503 7.21478L30.1443 7.57341L29.4271 6.85565L29.7857 6.49703ZM4.31942 7.57341L3.96029 7.21478L4.67804 6.49703L5.03667 6.85565L4.31942 7.57341ZM16.7246 3.53623V2.01449H17.7391V3.53623H16.7246ZM17.2319 34.9855C8.84101 34.9855 2.01449 28.159 2.01449 19.7681C2.01449 11.3772 8.84101 4.55072 17.2319 4.55072C25.6228 4.55072 32.4493 11.3772 32.4493 19.7681C32.4493 28.159 25.6228 34.9855 17.2319 34.9855Z" stroke="#5259F3" stroke-width="0.6" mask="url(#path-2-outside-2)"/>
<mask id="path-3-outside-3" maskUnits="userSpaceOnUse" x="14.2029" y="11.6667" width="6" height="11" fill="black">
<rect fill="white" x="14.2029" y="11.6667" width="6" height="11"/>
<path d="M17.7391 17.8112V13.1739C17.7391 12.8939 17.5119 12.6667 17.2319 12.6667C16.9519 12.6667 16.7246 12.8939 16.7246 13.1739V17.8112C15.8522 18.0379 15.2029 18.8257 15.2029 19.7681C15.2029 20.8871 16.1129 21.7971 17.2319 21.7971C18.3509 21.7971 19.2609 20.8871 19.2609 19.7681C19.2609 18.8257 18.6121 18.0379 17.7391 17.8112ZM17.2319 20.7826C16.6724 20.7826 16.2174 20.3276 16.2174 19.7681C16.2174 19.2086 16.6724 18.7536 17.2319 18.7536C17.7914 18.7536 18.2464 19.2086 18.2464 19.7681C18.2464 20.3276 17.7914 20.7826 17.2319 20.7826Z"/>
</mask>
<path d="M17.7391 17.8112V13.1739C17.7391 12.8939 17.5119 12.6667 17.2319 12.6667C16.9519 12.6667 16.7246 12.8939 16.7246 13.1739V17.8112C15.8522 18.0379 15.2029 18.8257 15.2029 19.7681C15.2029 20.8871 16.1129 21.7971 17.2319 21.7971C18.3509 21.7971 19.2609 20.8871 19.2609 19.7681C19.2609 18.8257 18.6121 18.0379 17.7391 17.8112ZM17.2319 20.7826C16.6724 20.7826 16.2174 20.3276 16.2174 19.7681C16.2174 19.2086 16.6724 18.7536 17.2319 18.7536C17.7914 18.7536 18.2464 19.2086 18.2464 19.7681C18.2464 20.3276 17.7914 20.7826 17.2319 20.7826Z" fill="#5259F3"/>
<path d="M17.7391 17.8112V13.1739C17.7391 12.8939 17.5119 12.6667 17.2319 12.6667C16.9519 12.6667 16.7246 12.8939 16.7246 13.1739V17.8112C15.8522 18.0379 15.2029 18.8257 15.2029 19.7681C15.2029 20.8871 16.1129 21.7971 17.2319 21.7971C18.3509 21.7971 19.2609 20.8871 19.2609 19.7681C19.2609 18.8257 18.6121 18.0379 17.7391 17.8112ZM17.2319 20.7826C16.6724 20.7826 16.2174 20.3276 16.2174 19.7681C16.2174 19.2086 16.6724 18.7536 17.2319 18.7536C17.7914 18.7536 18.2464 19.2086 18.2464 19.7681C18.2464 20.3276 17.7914 20.7826 17.2319 20.7826Z" stroke="#5259F3" stroke-width="0.6" mask="url(#path-3-outside-3)"/>
<mask id="path-4-outside-4" maskUnits="userSpaceOnUse" x="15.7246" y="7.6087" width="3" height="3" fill="black">
<rect fill="white" x="15.7246" y="7.6087" width="3" height="3"/>
<path d="M17.2319 10.1304C16.9519 10.1304 16.7246 9.9032 16.7246 9.6232V9.11595C16.7246 8.83595 16.9519 8.6087 17.2319 8.6087C17.5119 8.6087 17.7391 8.83595 17.7391 9.11595V9.6232C17.7391 9.9032 17.5119 10.1304 17.2319 10.1304Z"/>
</mask>
<path d="M17.2319 10.1304C16.9519 10.1304 16.7246 9.9032 16.7246 9.6232V9.11595C16.7246 8.83595 16.9519 8.6087 17.2319 8.6087C17.5119 8.6087 17.7391 8.83595 17.7391 9.11595V9.6232C17.7391 9.9032 17.5119 10.1304 17.2319 10.1304Z" fill="#5259F3"/>
<path d="M17.2319 10.1304C16.9519 10.1304 16.7246 9.9032 16.7246 9.6232V9.11595C16.7246 8.83595 16.9519 8.6087 17.2319 8.6087C17.5119 8.6087 17.7391 8.83595 17.7391 9.11595V9.6232C17.7391 9.9032 17.5119 10.1304 17.2319 10.1304Z" stroke="#5259F3" stroke-width="0.6" mask="url(#path-4-outside-4)"/>
<mask id="path-5-outside-5" maskUnits="userSpaceOnUse" x="8.19238" y="10.7281" width="3" height="3" fill="black">
<rect fill="white" x="8.19238" y="10.7281" width="3" height="3"/>
<path d="M10.0584 13.1013C9.92852 13.1013 9.79867 13.0516 9.69976 12.9527L9.34113 12.5941C9.1428 12.3958 9.1428 12.0752 9.34113 11.8768C9.53947 11.6785 9.86005 11.6785 10.0584 11.8768L10.417 12.2355C10.6153 12.4338 10.6153 12.7544 10.417 12.9527C10.3181 13.0521 10.1882 13.1013 10.0584 13.1013Z"/>
</mask>
<path d="M10.0584 13.1013C9.92852 13.1013 9.79867 13.0516 9.69976 12.9527L9.34113 12.5941C9.1428 12.3958 9.1428 12.0752 9.34113 11.8768C9.53947 11.6785 9.86005 11.6785 10.0584 11.8768L10.417 12.2355C10.6153 12.4338 10.6153 12.7544 10.417 12.9527C10.3181 13.0521 10.1882 13.1013 10.0584 13.1013Z" fill="#5259F3"/>
<path d="M10.0584 13.1013C9.92852 13.1013 9.79867 13.0516 9.69976 12.9527L9.34113 12.5941C9.1428 12.3958 9.1428 12.0752 9.34113 11.8768C9.53947 11.6785 9.86005 11.6785 10.0584 11.8768L10.417 12.2355C10.6153 12.4338 10.6153 12.7544 10.417 12.9527C10.3181 13.0521 10.1882 13.1013 10.0584 13.1013Z" stroke="#5259F3" stroke-width="0.6" mask="url(#path-5-outside-5)"/>
<mask id="path-6-outside-6" maskUnits="userSpaceOnUse" x="5.07251" y="18.2609" width="3" height="3" fill="black">
<rect fill="white" x="5.07251" y="18.2609" width="3" height="3"/>
<path d="M7.087 20.2754H6.57976C6.29976 20.2754 6.07251 20.0486 6.07251 19.7681C6.07251 19.4876 6.29976 19.2609 6.57976 19.2609H7.087C7.367 19.2609 7.59425 19.4876 7.59425 19.7681C7.59425 20.0486 7.367 20.2754 7.087 20.2754Z"/>
</mask>
<path d="M7.087 20.2754H6.57976C6.29976 20.2754 6.07251 20.0486 6.07251 19.7681C6.07251 19.4876 6.29976 19.2609 6.57976 19.2609H7.087C7.367 19.2609 7.59425 19.4876 7.59425 19.7681C7.59425 20.0486 7.367 20.2754 7.087 20.2754Z" fill="#5259F3"/>
<path d="M7.087 20.2754H6.57976C6.29976 20.2754 6.07251 20.0486 6.07251 19.7681C6.07251 19.4876 6.29976 19.2609 6.57976 19.2609H7.087C7.367 19.2609 7.59425 19.4876 7.59425 19.7681C7.59425 20.0486 7.367 20.2754 7.087 20.2754Z" stroke="#5259F3" stroke-width="0.6" mask="url(#path-6-outside-6)"/>
<mask id="path-7-outside-7" maskUnits="userSpaceOnUse" x="8.19238" y="25.4348" width="3" height="3" fill="black">
<rect fill="white" x="8.19238" y="25.4348" width="3" height="3"/>
<path d="M9.69976 27.808C9.5699 27.808 9.44005 27.7583 9.34113 27.6594C9.1428 27.461 9.1428 27.1405 9.34113 26.9421L9.69976 26.5835C9.89809 26.3852 10.2187 26.3852 10.417 26.5835C10.6153 26.7818 10.6153 27.1024 10.417 27.3008L10.0584 27.6594C9.95947 27.7583 9.82961 27.808 9.69976 27.808Z"/>
</mask>
<path d="M9.69976 27.808C9.5699 27.808 9.44005 27.7583 9.34113 27.6594C9.1428 27.461 9.1428 27.1405 9.34113 26.9421L9.69976 26.5835C9.89809 26.3852 10.2187 26.3852 10.417 26.5835C10.6153 26.7818 10.6153 27.1024 10.417 27.3008L10.0584 27.6594C9.95947 27.7583 9.82961 27.808 9.69976 27.808Z" fill="#5259F3"/>
<path d="M9.69976 27.808C9.5699 27.808 9.44005 27.7583 9.34113 27.6594C9.1428 27.461 9.1428 27.1405 9.34113 26.9421L9.69976 26.5835C9.89809 26.3852 10.2187 26.3852 10.417 26.5835C10.6153 26.7818 10.6153 27.1024 10.417 27.3008L10.0584 27.6594C9.95947 27.7583 9.82961 27.808 9.69976 27.808Z" stroke="#5259F3" stroke-width="0.6" mask="url(#path-7-outside-7)"/>
<mask id="path-8-outside-8" maskUnits="userSpaceOnUse" x="15.7246" y="28.4058" width="3" height="3" fill="black">
<rect fill="white" x="15.7246" y="28.4058" width="3" height="3"/>
<path d="M17.2319 30.9276C16.9519 30.9276 16.7246 30.7008 16.7246 30.4203V29.9131C16.7246 29.6326 16.9519 29.4058 17.2319 29.4058C17.5119 29.4058 17.7391 29.6326 17.7391 29.9131V30.4203C17.7391 30.7008 17.5119 30.9276 17.2319 30.9276Z"/>
</mask>
<path d="M17.2319 30.9276C16.9519 30.9276 16.7246 30.7008 16.7246 30.4203V29.9131C16.7246 29.6326 16.9519 29.4058 17.2319 29.4058C17.5119 29.4058 17.7391 29.6326 17.7391 29.9131V30.4203C17.7391 30.7008 17.5119 30.9276 17.2319 30.9276Z" fill="#5259F3"/>
<path d="M17.2319 30.9276C16.9519 30.9276 16.7246 30.7008 16.7246 30.4203V29.9131C16.7246 29.6326 16.9519 29.4058 17.2319 29.4058C17.5119 29.4058 17.7391 29.6326 17.7391 29.9131V30.4203C17.7391 30.7008 17.5119 30.9276 17.2319 30.9276Z" stroke="#5259F3" stroke-width="0.6" mask="url(#path-8-outside-8)"/>
<mask id="path-9-outside-9" maskUnits="userSpaceOnUse" x="22.8984" y="25.4348" width="3" height="3" fill="black">
<rect fill="white" x="22.8984" y="25.4348" width="3" height="3"/>
<path d="M24.7644 27.808C24.6346 27.808 24.5047 27.7583 24.4058 27.6594L24.0472 27.3008C23.8489 27.1024 23.8489 26.7818 24.0472 26.5835C24.2455 26.3852 24.5661 26.3852 24.7644 26.5835L25.1231 26.9421C25.3214 27.1405 25.3214 27.461 25.1231 27.6594C25.0236 27.7583 24.8938 27.808 24.7644 27.808Z"/>
</mask>
<path d="M24.7644 27.808C24.6346 27.808 24.5047 27.7583 24.4058 27.6594L24.0472 27.3008C23.8489 27.1024 23.8489 26.7818 24.0472 26.5835C24.2455 26.3852 24.5661 26.3852 24.7644 26.5835L25.1231 26.9421C25.3214 27.1405 25.3214 27.461 25.1231 27.6594C25.0236 27.7583 24.8938 27.808 24.7644 27.808Z" fill="#5259F3"/>
<path d="M24.7644 27.808C24.6346 27.808 24.5047 27.7583 24.4058 27.6594L24.0472 27.3008C23.8489 27.1024 23.8489 26.7818 24.0472 26.5835C24.2455 26.3852 24.5661 26.3852 24.7644 26.5835L25.1231 26.9421C25.3214 27.1405 25.3214 27.461 25.1231 27.6594C25.0236 27.7583 24.8938 27.808 24.7644 27.808Z" stroke="#5259F3" stroke-width="0.6" mask="url(#path-9-outside-9)"/>
<mask id="path-10-outside-10" maskUnits="userSpaceOnUse" x="25.8696" y="18.2609" width="3" height="3" fill="black">
<rect fill="white" x="25.8696" y="18.2609" width="3" height="3"/>
<path d="M27.8841 20.2754H27.3769C27.0964 20.2754 26.8696 20.0486 26.8696 19.7681C26.8696 19.4876 27.0964 19.2609 27.3769 19.2609H27.8841C28.1646 19.2609 28.3914 19.4876 28.3914 19.7681C28.3914 20.0486 28.1646 20.2754 27.8841 20.2754Z"/>
</mask>
<path d="M27.8841 20.2754H27.3769C27.0964 20.2754 26.8696 20.0486 26.8696 19.7681C26.8696 19.4876 27.0964 19.2609 27.3769 19.2609H27.8841C28.1646 19.2609 28.3914 19.4876 28.3914 19.7681C28.3914 20.0486 28.1646 20.2754 27.8841 20.2754Z" fill="#5259F3"/>
<path d="M27.8841 20.2754H27.3769C27.0964 20.2754 26.8696 20.0486 26.8696 19.7681C26.8696 19.4876 27.0964 19.2609 27.3769 19.2609H27.8841C28.1646 19.2609 28.3914 19.4876 28.3914 19.7681C28.3914 20.0486 28.1646 20.2754 27.8841 20.2754Z" stroke="#5259F3" stroke-width="0.6" mask="url(#path-10-outside-10)"/>
<mask id="path-11-outside-11" maskUnits="userSpaceOnUse" x="22.8984" y="10.7281" width="3" height="3" fill="black">
<rect fill="white" x="22.8984" y="10.7281" width="3" height="3"/>
<path d="M24.4058 13.1013C24.276 13.1013 24.1461 13.0516 24.0472 12.9527C23.8489 12.7544 23.8489 12.4338 24.0472 12.2355L24.4058 11.8768C24.6041 11.6785 24.9247 11.6785 25.1231 11.8768C25.3214 12.0752 25.3214 12.3958 25.1231 12.5941L24.7644 12.9527C24.665 13.0521 24.5352 13.1013 24.4058 13.1013Z"/>
</mask>
<path d="M24.4058 13.1013C24.276 13.1013 24.1461 13.0516 24.0472 12.9527C23.8489 12.7544 23.8489 12.4338 24.0472 12.2355L24.4058 11.8768C24.6041 11.6785 24.9247 11.6785 25.1231 11.8768C25.3214 12.0752 25.3214 12.3958 25.1231 12.5941L24.7644 12.9527C24.665 13.0521 24.5352 13.1013 24.4058 13.1013Z" fill="#5259F3"/>
<path d="M24.4058 13.1013C24.276 13.1013 24.1461 13.0516 24.0472 12.9527C23.8489 12.7544 23.8489 12.4338 24.0472 12.2355L24.4058 11.8768C24.6041 11.6785 24.9247 11.6785 25.1231 11.8768C25.3214 12.0752 25.3214 12.3958 25.1231 12.5941L24.7644 12.9527C24.665 13.0521 24.5352 13.1013 24.4058 13.1013Z" stroke="#5259F3" stroke-width="0.6" mask="url(#path-11-outside-11)"/>
</svg>
