<svg width="38" height="31" viewBox="0 0 38 31" fill="none" xmlns="http://www.w3.org/2000/svg">
<mask id="path-1-outside-1" maskUnits="userSpaceOnUse" x="0" y="0" width="38" height="31" fill="black">
<rect fill="white" width="38" height="31"/>
<path d="M29.1245 10.7457C28.295 10.7457 27.4821 10.7902 26.6978 10.8761V3.8795C26.6978 1.98922 22.7359 1 18.8223 1C14.9088 1 10.9465 1.98922 10.9465 3.8795V6.48955C10.2679 6.42708 9.57768 6.3853 8.87548 6.3853C4.96194 6.3853 1.00039 7.37452 1 9.26442V23.7903C1 25.6806 4.96194 26.6694 8.87548 26.6694C9.57768 26.6694 10.2679 26.6276 10.9465 26.5652V27.1205C10.9465 29.0108 14.9084 30 18.8223 30C22.7363 30 26.6978 29.0108 26.6978 27.1205V25.0892C27.4817 25.175 28.2942 25.2195 29.1245 25.2195C33.0381 25.2195 37 24.2303 37 22.34V13.6245C37 11.7346 33.0381 10.7457 29.1245 10.7457ZM18.8223 25.945C14.4779 25.945 12.1077 24.8025 12.1077 24.2153V22.8888C13.569 23.747 16.2055 24.1897 18.8223 24.1897C21.4391 24.1897 24.0752 23.747 25.5365 22.8888V24.2153C25.5365 24.8025 23.1667 25.945 18.8223 25.945ZM12.1077 14.1737C13.569 15.0318 16.2055 15.4745 18.8223 15.4745C21.4391 15.4745 24.0752 15.0318 25.5365 14.1737V15.0583V15.5002C25.5365 16.087 23.1667 17.2295 18.8223 17.2295C14.4779 17.2295 12.1077 16.087 12.1077 15.5002V14.1737ZM12.1077 17.0785C13.569 17.9366 16.2055 18.3793 18.8223 18.3793C21.4391 18.3793 24.0752 17.9366 25.5365 17.0785V18.4054C25.5365 18.9922 23.1667 20.1347 18.8223 20.1347C14.4779 20.1347 12.1077 18.9922 12.1077 18.4054V17.0785ZM12.1077 19.9837C13.569 20.8418 16.2055 21.2845 18.8223 21.2845C21.4391 21.2845 24.0752 20.8418 25.5365 19.9837V21.3105C25.5365 21.8973 23.1667 23.0398 18.8223 23.0398C14.4779 23.0398 12.1077 21.8973 12.1077 21.3105V19.9837ZM18.8223 14.3247C14.4779 14.3247 12.1077 13.1822 12.1077 12.595V11.9174V11.2685C13.569 12.1267 16.2055 12.5693 18.8223 12.5693C21.4391 12.5693 24.0752 12.1267 25.5365 11.2685V12.595C25.5365 13.1822 23.1667 14.3247 18.8223 14.3247ZM18.8223 11.4195C14.4779 11.4195 12.1077 10.277 12.1077 9.68984V8.36335C13.569 9.22149 16.2055 9.66416 18.8223 9.66416C21.4391 9.66416 24.0752 9.22149 25.5365 8.36335V9.68984C25.5365 10.277 23.1667 11.4195 18.8223 11.4195ZM18.8223 8.51398C14.4779 8.51398 12.1077 7.37145 12.1077 6.78467V6.6122V5.46009C12.1186 5.46661 12.131 5.47236 12.1418 5.47849C12.2154 5.52103 12.2916 5.56243 12.371 5.60267C12.381 5.60765 12.3899 5.61302 12.4 5.618C12.4917 5.66399 12.5881 5.70845 12.6872 5.75176C12.7074 5.76058 12.7283 5.76901 12.7488 5.77782C12.8374 5.81577 12.9288 5.85256 13.0228 5.8882C13.0352 5.8928 13.0472 5.89779 13.06 5.90239C14.5708 6.46847 16.703 6.75899 18.8223 6.75899C20.9425 6.75899 23.0757 6.46809 24.5866 5.90162C24.5974 5.89779 24.6075 5.89357 24.6183 5.88974C24.7143 5.85333 24.8076 5.81577 24.8982 5.77706C24.9172 5.76901 24.9365 5.76096 24.9555 5.75291C25.0554 5.70922 25.1521 5.66476 25.245 5.61838C25.2535 5.61417 25.2613 5.60957 25.2698 5.60535C25.3507 5.56434 25.4281 5.52218 25.5032 5.47887C25.5141 5.47274 25.5261 5.46699 25.5369 5.46086V6.78582C25.5365 7.37184 23.1667 8.51398 18.8223 8.51398ZM18.8223 2.14981C23.1667 2.14981 25.5365 3.29233 25.5365 3.8795C25.5365 4.46628 23.1667 5.6088 18.8223 5.6088C14.4779 5.6088 12.1077 4.46628 12.1077 3.8795C12.1077 3.29233 14.4779 2.14981 18.8223 2.14981ZM8.87548 7.53511C9.5769 7.53511 10.2714 7.56807 10.9465 7.63399V10.8856C10.7754 10.9021 10.605 10.9201 10.432 10.9324C10.3116 10.9412 10.1928 10.9519 10.0716 10.9585C9.67639 10.9803 9.27768 10.9941 8.87587 10.9941C7.78968 10.9941 6.82697 10.9228 5.99394 10.8063C3.49484 10.4575 2.16168 9.70479 2.16168 9.26442C2.16168 8.67763 4.53148 7.53511 8.87548 7.53511ZM2.16129 10.845C2.16903 10.8496 2.17832 10.8538 2.18645 10.8584C2.28865 10.9175 2.39626 10.9749 2.50968 11.0301C2.52903 11.0393 2.54877 11.0485 2.56813 11.0577C2.68697 11.1141 2.80968 11.1693 2.93935 11.221C2.93974 11.221 2.93974 11.221 2.94013 11.2214C3.06865 11.2731 3.20374 11.3218 3.34232 11.3693C3.3671 11.3778 3.3911 11.3862 3.41626 11.3946C3.55058 11.4395 3.68916 11.4824 3.83161 11.523C3.85871 11.5307 3.88581 11.5383 3.91329 11.546C4.06232 11.5874 4.21445 11.6276 4.37084 11.6648C4.37665 11.6664 4.38245 11.6675 4.38787 11.6687C4.54929 11.707 4.71497 11.7426 4.88335 11.7764C4.89729 11.779 4.91084 11.7821 4.92477 11.7848C5.09626 11.8185 5.27161 11.8499 5.44968 11.8787C5.46361 11.881 5.47716 11.8833 5.4911 11.8852C6.55445 12.0565 7.7169 12.1439 8.87626 12.1439C8.90452 12.1439 8.93239 12.1416 8.96103 12.1412C9.37523 12.1401 9.78826 12.1278 10.1966 12.1044C10.2257 12.1029 10.2551 12.1018 10.2841 12.1002C10.5071 12.0868 10.7285 12.0703 10.9476 12.0504V13.792C10.2772 13.8583 9.58774 13.9012 8.87858 13.9012C4.53303 13.9012 2.16245 12.7568 2.16245 12.1688V10.845H2.16129ZM2.16129 13.7487C3.62297 14.6076 6.25987 15.051 8.87742 15.051C9.58465 15.051 10.2733 15.0088 10.9465 14.9464V16.6975C10.276 16.7638 9.58658 16.8068 8.87742 16.8068C4.53187 16.8068 2.16129 15.6623 2.16129 15.0744V13.7487ZM2.16129 16.6538C3.62297 17.5127 6.25987 17.9562 8.87742 17.9562C9.58465 17.9562 10.2733 17.914 10.9465 17.8515V19.6027C10.276 19.669 9.58658 19.7119 8.87742 19.7119C4.53187 19.7119 2.16129 18.5675 2.16129 17.9796V16.6538ZM2.16129 19.559C3.62297 20.4179 6.25987 20.8613 8.87742 20.8613C9.58465 20.8613 10.2733 20.8192 10.9465 20.7567V22.5079C10.276 22.5742 9.58658 22.6171 8.87742 22.6171C4.53187 22.6171 2.16129 21.4727 2.16129 20.8847V19.559ZM8.87548 25.52C4.5311 25.52 2.16129 24.3775 2.16129 23.7907V22.4642C3.62297 23.3231 6.25987 23.7665 8.87742 23.7665C9.58465 23.7665 10.2733 23.7244 10.9465 23.6619V25.4215C10.2717 25.487 9.57729 25.52 8.87548 25.52ZM18.8223 28.8506C14.4779 28.8506 12.1077 27.7081 12.1077 27.1209V26.4433V25.7944C13.569 26.6525 16.2055 27.0952 18.8223 27.0952C21.4391 27.0952 24.0752 26.6525 25.5365 25.7944V27.1209C25.5365 27.7081 23.1667 28.8506 18.8223 28.8506ZM29.1245 24.0697C28.2919 24.0697 27.4782 24.0237 26.6978 23.9336V22.1859C27.477 22.2699 28.2888 22.3139 29.1226 22.3139C31.7401 22.3139 34.377 21.8713 35.8387 21.0135V22.3408C35.8387 22.9272 33.4689 24.0697 29.1245 24.0697ZM29.1226 21.1637C28.2853 21.1637 27.4735 21.1162 26.6978 21.0273V19.2808C27.477 19.3647 28.2892 19.4084 29.1226 19.4084C31.7401 19.4084 34.377 18.9657 35.8387 18.108V19.4352C35.8387 20.022 33.4681 21.1637 29.1226 21.1637ZM29.1226 18.2586C28.2857 18.2586 27.4735 18.211 26.6978 18.1221V16.3752C26.7141 16.3771 26.7311 16.3783 26.7474 16.3798C26.8105 16.3867 26.8751 16.3917 26.9386 16.3978C27.0996 16.4135 27.261 16.4281 27.4248 16.44C27.5405 16.4488 27.657 16.4553 27.7735 16.4622C27.8761 16.4679 27.9783 16.4733 28.0813 16.4779C28.2334 16.4848 28.3859 16.4902 28.5396 16.494C28.5849 16.4952 28.6302 16.4955 28.6755 16.4963C28.8249 16.499 28.9735 16.504 29.1241 16.504C31.3054 16.504 33.5003 16.1966 35.0173 15.5972C35.0212 15.5956 35.0254 15.5941 35.0297 15.5926C35.1656 15.5385 35.2948 15.4818 35.4195 15.4232C35.4388 15.414 35.4582 15.4051 35.4775 15.3959C35.5945 15.3392 35.7059 15.2802 35.8116 15.2193C35.8201 15.2143 35.8302 15.2101 35.8387 15.2051V16.5304C35.8387 17.1168 33.4681 18.2586 29.1226 18.2586ZM29.1245 15.3542C28.7506 15.3542 28.3821 15.3419 28.017 15.3235C27.947 15.3201 27.8765 15.317 27.8068 15.3128C27.4561 15.2917 27.1101 15.2622 26.7706 15.2242C26.7462 15.2216 26.7222 15.2181 26.6982 15.2154V12.0316C27.4786 11.9412 28.2926 11.8956 29.1249 11.8956C33.4693 11.8956 35.8391 13.0381 35.8391 13.6249C35.8391 14.2116 33.4689 15.3542 29.1245 15.3542Z"/>
</mask>
<path d="M29.1245 10.7457C28.295 10.7457 27.4821 10.7902 26.6978 10.8761V3.8795C26.6978 1.98922 22.7359 1 18.8223 1C14.9088 1 10.9465 1.98922 10.9465 3.8795V6.48955C10.2679 6.42708 9.57768 6.3853 8.87548 6.3853C4.96194 6.3853 1.00039 7.37452 1 9.26442V23.7903C1 25.6806 4.96194 26.6694 8.87548 26.6694C9.57768 26.6694 10.2679 26.6276 10.9465 26.5652V27.1205C10.9465 29.0108 14.9084 30 18.8223 30C22.7363 30 26.6978 29.0108 26.6978 27.1205V25.0892C27.4817 25.175 28.2942 25.2195 29.1245 25.2195C33.0381 25.2195 37 24.2303 37 22.34V13.6245C37 11.7346 33.0381 10.7457 29.1245 10.7457ZM18.8223 25.945C14.4779 25.945 12.1077 24.8025 12.1077 24.2153V22.8888C13.569 23.747 16.2055 24.1897 18.8223 24.1897C21.4391 24.1897 24.0752 23.747 25.5365 22.8888V24.2153C25.5365 24.8025 23.1667 25.945 18.8223 25.945ZM12.1077 14.1737C13.569 15.0318 16.2055 15.4745 18.8223 15.4745C21.4391 15.4745 24.0752 15.0318 25.5365 14.1737V15.0583V15.5002C25.5365 16.087 23.1667 17.2295 18.8223 17.2295C14.4779 17.2295 12.1077 16.087 12.1077 15.5002V14.1737ZM12.1077 17.0785C13.569 17.9366 16.2055 18.3793 18.8223 18.3793C21.4391 18.3793 24.0752 17.9366 25.5365 17.0785V18.4054C25.5365 18.9922 23.1667 20.1347 18.8223 20.1347C14.4779 20.1347 12.1077 18.9922 12.1077 18.4054V17.0785ZM12.1077 19.9837C13.569 20.8418 16.2055 21.2845 18.8223 21.2845C21.4391 21.2845 24.0752 20.8418 25.5365 19.9837V21.3105C25.5365 21.8973 23.1667 23.0398 18.8223 23.0398C14.4779 23.0398 12.1077 21.8973 12.1077 21.3105V19.9837ZM18.8223 14.3247C14.4779 14.3247 12.1077 13.1822 12.1077 12.595V11.9174V11.2685C13.569 12.1267 16.2055 12.5693 18.8223 12.5693C21.4391 12.5693 24.0752 12.1267 25.5365 11.2685V12.595C25.5365 13.1822 23.1667 14.3247 18.8223 14.3247ZM18.8223 11.4195C14.4779 11.4195 12.1077 10.277 12.1077 9.68984V8.36335C13.569 9.22149 16.2055 9.66416 18.8223 9.66416C21.4391 9.66416 24.0752 9.22149 25.5365 8.36335V9.68984C25.5365 10.277 23.1667 11.4195 18.8223 11.4195ZM18.8223 8.51398C14.4779 8.51398 12.1077 7.37145 12.1077 6.78467V6.6122V5.46009C12.1186 5.46661 12.131 5.47236 12.1418 5.47849C12.2154 5.52103 12.2916 5.56243 12.371 5.60267C12.381 5.60765 12.3899 5.61302 12.4 5.618C12.4917 5.66399 12.5881 5.70845 12.6872 5.75176C12.7074 5.76058 12.7283 5.76901 12.7488 5.77782C12.8374 5.81577 12.9288 5.85256 13.0228 5.8882C13.0352 5.8928 13.0472 5.89779 13.06 5.90239C14.5708 6.46847 16.703 6.75899 18.8223 6.75899C20.9425 6.75899 23.0757 6.46809 24.5866 5.90162C24.5974 5.89779 24.6075 5.89357 24.6183 5.88974C24.7143 5.85333 24.8076 5.81577 24.8982 5.77706C24.9172 5.76901 24.9365 5.76096 24.9555 5.75291C25.0554 5.70922 25.1521 5.66476 25.245 5.61838C25.2535 5.61417 25.2613 5.60957 25.2698 5.60535C25.3507 5.56434 25.4281 5.52218 25.5032 5.47887C25.5141 5.47274 25.5261 5.46699 25.5369 5.46086V6.78582C25.5365 7.37184 23.1667 8.51398 18.8223 8.51398ZM18.8223 2.14981C23.1667 2.14981 25.5365 3.29233 25.5365 3.8795C25.5365 4.46628 23.1667 5.6088 18.8223 5.6088C14.4779 5.6088 12.1077 4.46628 12.1077 3.8795C12.1077 3.29233 14.4779 2.14981 18.8223 2.14981ZM8.87548 7.53511C9.5769 7.53511 10.2714 7.56807 10.9465 7.63399V10.8856C10.7754 10.9021 10.605 10.9201 10.432 10.9324C10.3116 10.9412 10.1928 10.9519 10.0716 10.9585C9.67639 10.9803 9.27768 10.9941 8.87587 10.9941C7.78968 10.9941 6.82697 10.9228 5.99394 10.8063C3.49484 10.4575 2.16168 9.70479 2.16168 9.26442C2.16168 8.67763 4.53148 7.53511 8.87548 7.53511ZM2.16129 10.845C2.16903 10.8496 2.17832 10.8538 2.18645 10.8584C2.28865 10.9175 2.39626 10.9749 2.50968 11.0301C2.52903 11.0393 2.54877 11.0485 2.56813 11.0577C2.68697 11.1141 2.80968 11.1693 2.93935 11.221C2.93974 11.221 2.93974 11.221 2.94013 11.2214C3.06865 11.2731 3.20374 11.3218 3.34232 11.3693C3.3671 11.3778 3.3911 11.3862 3.41626 11.3946C3.55058 11.4395 3.68916 11.4824 3.83161 11.523C3.85871 11.5307 3.88581 11.5383 3.91329 11.546C4.06232 11.5874 4.21445 11.6276 4.37084 11.6648C4.37665 11.6664 4.38245 11.6675 4.38787 11.6687C4.54929 11.707 4.71497 11.7426 4.88335 11.7764C4.89729 11.779 4.91084 11.7821 4.92477 11.7848C5.09626 11.8185 5.27161 11.8499 5.44968 11.8787C5.46361 11.881 5.47716 11.8833 5.4911 11.8852C6.55445 12.0565 7.7169 12.1439 8.87626 12.1439C8.90452 12.1439 8.93239 12.1416 8.96103 12.1412C9.37523 12.1401 9.78826 12.1278 10.1966 12.1044C10.2257 12.1029 10.2551 12.1018 10.2841 12.1002C10.5071 12.0868 10.7285 12.0703 10.9476 12.0504V13.792C10.2772 13.8583 9.58774 13.9012 8.87858 13.9012C4.53303 13.9012 2.16245 12.7568 2.16245 12.1688V10.845H2.16129ZM2.16129 13.7487C3.62297 14.6076 6.25987 15.051 8.87742 15.051C9.58465 15.051 10.2733 15.0088 10.9465 14.9464V16.6975C10.276 16.7638 9.58658 16.8068 8.87742 16.8068C4.53187 16.8068 2.16129 15.6623 2.16129 15.0744V13.7487ZM2.16129 16.6538C3.62297 17.5127 6.25987 17.9562 8.87742 17.9562C9.58465 17.9562 10.2733 17.914 10.9465 17.8515V19.6027C10.276 19.669 9.58658 19.7119 8.87742 19.7119C4.53187 19.7119 2.16129 18.5675 2.16129 17.9796V16.6538ZM2.16129 19.559C3.62297 20.4179 6.25987 20.8613 8.87742 20.8613C9.58465 20.8613 10.2733 20.8192 10.9465 20.7567V22.5079C10.276 22.5742 9.58658 22.6171 8.87742 22.6171C4.53187 22.6171 2.16129 21.4727 2.16129 20.8847V19.559ZM8.87548 25.52C4.5311 25.52 2.16129 24.3775 2.16129 23.7907V22.4642C3.62297 23.3231 6.25987 23.7665 8.87742 23.7665C9.58465 23.7665 10.2733 23.7244 10.9465 23.6619V25.4215C10.2717 25.487 9.57729 25.52 8.87548 25.52ZM18.8223 28.8506C14.4779 28.8506 12.1077 27.7081 12.1077 27.1209V26.4433V25.7944C13.569 26.6525 16.2055 27.0952 18.8223 27.0952C21.4391 27.0952 24.0752 26.6525 25.5365 25.7944V27.1209C25.5365 27.7081 23.1667 28.8506 18.8223 28.8506ZM29.1245 24.0697C28.2919 24.0697 27.4782 24.0237 26.6978 23.9336V22.1859C27.477 22.2699 28.2888 22.3139 29.1226 22.3139C31.7401 22.3139 34.377 21.8713 35.8387 21.0135V22.3408C35.8387 22.9272 33.4689 24.0697 29.1245 24.0697ZM29.1226 21.1637C28.2853 21.1637 27.4735 21.1162 26.6978 21.0273V19.2808C27.477 19.3647 28.2892 19.4084 29.1226 19.4084C31.7401 19.4084 34.377 18.9657 35.8387 18.108V19.4352C35.8387 20.022 33.4681 21.1637 29.1226 21.1637ZM29.1226 18.2586C28.2857 18.2586 27.4735 18.211 26.6978 18.1221V16.3752C26.7141 16.3771 26.7311 16.3783 26.7474 16.3798C26.8105 16.3867 26.8751 16.3917 26.9386 16.3978C27.0996 16.4135 27.261 16.4281 27.4248 16.44C27.5405 16.4488 27.657 16.4553 27.7735 16.4622C27.8761 16.4679 27.9783 16.4733 28.0813 16.4779C28.2334 16.4848 28.3859 16.4902 28.5396 16.494C28.5849 16.4952 28.6302 16.4955 28.6755 16.4963C28.8249 16.499 28.9735 16.504 29.1241 16.504C31.3054 16.504 33.5003 16.1966 35.0173 15.5972C35.0212 15.5956 35.0254 15.5941 35.0297 15.5926C35.1656 15.5385 35.2948 15.4818 35.4195 15.4232C35.4388 15.414 35.4582 15.4051 35.4775 15.3959C35.5945 15.3392 35.7059 15.2802 35.8116 15.2193C35.8201 15.2143 35.8302 15.2101 35.8387 15.2051V16.5304C35.8387 17.1168 33.4681 18.2586 29.1226 18.2586ZM29.1245 15.3542C28.7506 15.3542 28.3821 15.3419 28.017 15.3235C27.947 15.3201 27.8765 15.317 27.8068 15.3128C27.4561 15.2917 27.1101 15.2622 26.7706 15.2242C26.7462 15.2216 26.7222 15.2181 26.6982 15.2154V12.0316C27.4786 11.9412 28.2926 11.8956 29.1249 11.8956C33.4693 11.8956 35.8391 13.0381 35.8391 13.6249C35.8391 14.2116 33.4689 15.3542 29.1245 15.3542Z" fill="#5259F3"/>
<path d="M29.1245 10.7457C28.295 10.7457 27.4821 10.7902 26.6978 10.8761V3.8795C26.6978 1.98922 22.7359 1 18.8223 1C14.9088 1 10.9465 1.98922 10.9465 3.8795V6.48955C10.2679 6.42708 9.57768 6.3853 8.87548 6.3853C4.96194 6.3853 1.00039 7.37452 1 9.26442V23.7903C1 25.6806 4.96194 26.6694 8.87548 26.6694C9.57768 26.6694 10.2679 26.6276 10.9465 26.5652V27.1205C10.9465 29.0108 14.9084 30 18.8223 30C22.7363 30 26.6978 29.0108 26.6978 27.1205V25.0892C27.4817 25.175 28.2942 25.2195 29.1245 25.2195C33.0381 25.2195 37 24.2303 37 22.34V13.6245C37 11.7346 33.0381 10.7457 29.1245 10.7457ZM18.8223 25.945C14.4779 25.945 12.1077 24.8025 12.1077 24.2153V22.8888C13.569 23.747 16.2055 24.1897 18.8223 24.1897C21.4391 24.1897 24.0752 23.747 25.5365 22.8888V24.2153C25.5365 24.8025 23.1667 25.945 18.8223 25.945ZM12.1077 14.1737C13.569 15.0318 16.2055 15.4745 18.8223 15.4745C21.4391 15.4745 24.0752 15.0318 25.5365 14.1737V15.0583V15.5002C25.5365 16.087 23.1667 17.2295 18.8223 17.2295C14.4779 17.2295 12.1077 16.087 12.1077 15.5002V14.1737ZM12.1077 17.0785C13.569 17.9366 16.2055 18.3793 18.8223 18.3793C21.4391 18.3793 24.0752 17.9366 25.5365 17.0785V18.4054C25.5365 18.9922 23.1667 20.1347 18.8223 20.1347C14.4779 20.1347 12.1077 18.9922 12.1077 18.4054V17.0785ZM12.1077 19.9837C13.569 20.8418 16.2055 21.2845 18.8223 21.2845C21.4391 21.2845 24.0752 20.8418 25.5365 19.9837V21.3105C25.5365 21.8973 23.1667 23.0398 18.8223 23.0398C14.4779 23.0398 12.1077 21.8973 12.1077 21.3105V19.9837ZM18.8223 14.3247C14.4779 14.3247 12.1077 13.1822 12.1077 12.595V11.9174V11.2685C13.569 12.1267 16.2055 12.5693 18.8223 12.5693C21.4391 12.5693 24.0752 12.1267 25.5365 11.2685V12.595C25.5365 13.1822 23.1667 14.3247 18.8223 14.3247ZM18.8223 11.4195C14.4779 11.4195 12.1077 10.277 12.1077 9.68984V8.36335C13.569 9.22149 16.2055 9.66416 18.8223 9.66416C21.4391 9.66416 24.0752 9.22149 25.5365 8.36335V9.68984C25.5365 10.277 23.1667 11.4195 18.8223 11.4195ZM18.8223 8.51398C14.4779 8.51398 12.1077 7.37145 12.1077 6.78467V6.6122V5.46009C12.1186 5.46661 12.131 5.47236 12.1418 5.47849C12.2154 5.52103 12.2916 5.56243 12.371 5.60267C12.381 5.60765 12.3899 5.61302 12.4 5.618C12.4917 5.66399 12.5881 5.70845 12.6872 5.75176C12.7074 5.76058 12.7283 5.76901 12.7488 5.77782C12.8374 5.81577 12.9288 5.85256 13.0228 5.8882C13.0352 5.8928 13.0472 5.89779 13.06 5.90239C14.5708 6.46847 16.703 6.75899 18.8223 6.75899C20.9425 6.75899 23.0757 6.46809 24.5866 5.90162C24.5974 5.89779 24.6075 5.89357 24.6183 5.88974C24.7143 5.85333 24.8076 5.81577 24.8982 5.77706C24.9172 5.76901 24.9365 5.76096 24.9555 5.75291C25.0554 5.70922 25.1521 5.66476 25.245 5.61838C25.2535 5.61417 25.2613 5.60957 25.2698 5.60535C25.3507 5.56434 25.4281 5.52218 25.5032 5.47887C25.5141 5.47274 25.5261 5.46699 25.5369 5.46086V6.78582C25.5365 7.37184 23.1667 8.51398 18.8223 8.51398ZM18.8223 2.14981C23.1667 2.14981 25.5365 3.29233 25.5365 3.8795C25.5365 4.46628 23.1667 5.6088 18.8223 5.6088C14.4779 5.6088 12.1077 4.46628 12.1077 3.8795C12.1077 3.29233 14.4779 2.14981 18.8223 2.14981ZM8.87548 7.53511C9.5769 7.53511 10.2714 7.56807 10.9465 7.63399V10.8856C10.7754 10.9021 10.605 10.9201 10.432 10.9324C10.3116 10.9412 10.1928 10.9519 10.0716 10.9585C9.67639 10.9803 9.27768 10.9941 8.87587 10.9941C7.78968 10.9941 6.82697 10.9228 5.99394 10.8063C3.49484 10.4575 2.16168 9.70479 2.16168 9.26442C2.16168 8.67763 4.53148 7.53511 8.87548 7.53511ZM2.16129 10.845C2.16903 10.8496 2.17832 10.8538 2.18645 10.8584C2.28865 10.9175 2.39626 10.9749 2.50968 11.0301C2.52903 11.0393 2.54877 11.0485 2.56813 11.0577C2.68697 11.1141 2.80968 11.1693 2.93935 11.221C2.93974 11.221 2.93974 11.221 2.94013 11.2214C3.06865 11.2731 3.20374 11.3218 3.34232 11.3693C3.3671 11.3778 3.3911 11.3862 3.41626 11.3946C3.55058 11.4395 3.68916 11.4824 3.83161 11.523C3.85871 11.5307 3.88581 11.5383 3.91329 11.546C4.06232 11.5874 4.21445 11.6276 4.37084 11.6648C4.37665 11.6664 4.38245 11.6675 4.38787 11.6687C4.54929 11.707 4.71497 11.7426 4.88335 11.7764C4.89729 11.779 4.91084 11.7821 4.92477 11.7848C5.09626 11.8185 5.27161 11.8499 5.44968 11.8787C5.46361 11.881 5.47716 11.8833 5.4911 11.8852C6.55445 12.0565 7.7169 12.1439 8.87626 12.1439C8.90452 12.1439 8.93239 12.1416 8.96103 12.1412C9.37523 12.1401 9.78826 12.1278 10.1966 12.1044C10.2257 12.1029 10.2551 12.1018 10.2841 12.1002C10.5071 12.0868 10.7285 12.0703 10.9476 12.0504V13.792C10.2772 13.8583 9.58774 13.9012 8.87858 13.9012C4.53303 13.9012 2.16245 12.7568 2.16245 12.1688V10.845H2.16129ZM2.16129 13.7487C3.62297 14.6076 6.25987 15.051 8.87742 15.051C9.58465 15.051 10.2733 15.0088 10.9465 14.9464V16.6975C10.276 16.7638 9.58658 16.8068 8.87742 16.8068C4.53187 16.8068 2.16129 15.6623 2.16129 15.0744V13.7487ZM2.16129 16.6538C3.62297 17.5127 6.25987 17.9562 8.87742 17.9562C9.58465 17.9562 10.2733 17.914 10.9465 17.8515V19.6027C10.276 19.669 9.58658 19.7119 8.87742 19.7119C4.53187 19.7119 2.16129 18.5675 2.16129 17.9796V16.6538ZM2.16129 19.559C3.62297 20.4179 6.25987 20.8613 8.87742 20.8613C9.58465 20.8613 10.2733 20.8192 10.9465 20.7567V22.5079C10.276 22.5742 9.58658 22.6171 8.87742 22.6171C4.53187 22.6171 2.16129 21.4727 2.16129 20.8847V19.559ZM8.87548 25.52C4.5311 25.52 2.16129 24.3775 2.16129 23.7907V22.4642C3.62297 23.3231 6.25987 23.7665 8.87742 23.7665C9.58465 23.7665 10.2733 23.7244 10.9465 23.6619V25.4215C10.2717 25.487 9.57729 25.52 8.87548 25.52ZM18.8223 28.8506C14.4779 28.8506 12.1077 27.7081 12.1077 27.1209V26.4433V25.7944C13.569 26.6525 16.2055 27.0952 18.8223 27.0952C21.4391 27.0952 24.0752 26.6525 25.5365 25.7944V27.1209C25.5365 27.7081 23.1667 28.8506 18.8223 28.8506ZM29.1245 24.0697C28.2919 24.0697 27.4782 24.0237 26.6978 23.9336V22.1859C27.477 22.2699 28.2888 22.3139 29.1226 22.3139C31.7401 22.3139 34.377 21.8713 35.8387 21.0135V22.3408C35.8387 22.9272 33.4689 24.0697 29.1245 24.0697ZM29.1226 21.1637C28.2853 21.1637 27.4735 21.1162 26.6978 21.0273V19.2808C27.477 19.3647 28.2892 19.4084 29.1226 19.4084C31.7401 19.4084 34.377 18.9657 35.8387 18.108V19.4352C35.8387 20.022 33.4681 21.1637 29.1226 21.1637ZM29.1226 18.2586C28.2857 18.2586 27.4735 18.211 26.6978 18.1221V16.3752C26.7141 16.3771 26.7311 16.3783 26.7474 16.3798C26.8105 16.3867 26.8751 16.3917 26.9386 16.3978C27.0996 16.4135 27.261 16.4281 27.4248 16.44C27.5405 16.4488 27.657 16.4553 27.7735 16.4622C27.8761 16.4679 27.9783 16.4733 28.0813 16.4779C28.2334 16.4848 28.3859 16.4902 28.5396 16.494C28.5849 16.4952 28.6302 16.4955 28.6755 16.4963C28.8249 16.499 28.9735 16.504 29.1241 16.504C31.3054 16.504 33.5003 16.1966 35.0173 15.5972C35.0212 15.5956 35.0254 15.5941 35.0297 15.5926C35.1656 15.5385 35.2948 15.4818 35.4195 15.4232C35.4388 15.414 35.4582 15.4051 35.4775 15.3959C35.5945 15.3392 35.7059 15.2802 35.8116 15.2193C35.8201 15.2143 35.8302 15.2101 35.8387 15.2051V16.5304C35.8387 17.1168 33.4681 18.2586 29.1226 18.2586ZM29.1245 15.3542C28.7506 15.3542 28.3821 15.3419 28.017 15.3235C27.947 15.3201 27.8765 15.317 27.8068 15.3128C27.4561 15.2917 27.1101 15.2622 26.7706 15.2242C26.7462 15.2216 26.7222 15.2181 26.6982 15.2154V12.0316C27.4786 11.9412 28.2926 11.8956 29.1249 11.8956C33.4693 11.8956 35.8391 13.0381 35.8391 13.6249C35.8391 14.2116 33.4689 15.3542 29.1245 15.3542Z" stroke="#5259F3" stroke-width="0.4" mask="url(#path-1-outside-1)"/>
</svg>
