<svg width="39" height="29" viewBox="0 0 39 29" fill="none" xmlns="http://www.w3.org/2000/svg">
<mask id="path-1-outside-1" maskUnits="userSpaceOnUse" x="0" y="0" width="39" height="29" fill="black">
<rect fill="white" width="39" height="29"/>
<path d="M3.13683 1.00196C2.93743 1.04006 2.77983 1.23423 2.78341 1.43742V3.17922C2.78014 3.40927 2.98856 3.62087 3.21839 3.62087C3.44821 3.62087 3.65661 3.40927 3.65336 3.17922V1.87287H15.3977C15.6275 1.87592 15.8389 1.66747 15.8389 1.43742C15.8389 1.20736 15.6275 0.998737 15.3977 1.00196H3.21839C3.19128 0.999347 3.16393 0.999347 3.13683 1.00196ZM17.926 1.00196C17.6983 1.02334 17.5105 1.25024 17.5318 1.47824C17.5532 1.70624 17.7798 1.89425 18.0076 1.87287H26.2722C26.2717 6.87488 26.2721 12.29 26.2722 16.6782H3.65336V15.3719C3.66321 15.1201 3.41374 14.8911 3.16401 14.9228C2.95034 14.9498 2.77502 15.1565 2.78341 15.3719C2.78263 18.2755 2.78341 21.1721 2.78341 24.0809C2.78341 24.3089 2.99063 24.5163 3.21839 24.5163H6.26323C6.27228 24.5167 6.28135 24.5167 6.29041 24.5163C6.51064 26.4688 8.17022 27.9999 10.178 27.9999C12.1813 27.9999 13.8394 26.4761 14.0656 24.5299C14.0748 24.5255 14.0839 24.5212 14.0928 24.5164H28.0121C28.0211 24.5167 28.0302 24.5167 28.0393 24.5164C28.2595 26.4688 29.9191 28 31.9269 28C33.9347 28 35.5943 26.4688 35.8145 24.5164C35.8235 24.5167 35.8326 24.5167 35.8417 24.5164H38.0165C38.2443 24.5164 38.4515 24.3089 38.4515 24.0809V14.0656C38.4525 13.9737 38.4235 13.8817 38.37 13.8071L32.3075 5.53336C32.2263 5.42323 32.0908 5.35538 31.9541 5.35645H27.1421V1.43742C27.1421 1.20942 26.9349 1.00198 26.7071 1.00196C23.7826 1.00196 20.8444 1.00196 17.926 1.00196ZM1.39692 5.7919C1.16876 5.81276 0.980272 6.03994 1.00166 6.26829C1.02304 6.49665 1.25042 6.68478 1.47848 6.66282H10.178C10.4079 6.6663 10.6193 6.45747 10.6193 6.22736C10.6193 5.99725 10.4079 5.7886 10.178 5.7919H1.47848C1.45137 5.78929 1.42403 5.78929 1.39692 5.7919ZM27.1421 6.22736H31.7366L37.1602 13.63H27.1421V6.22736ZM3.13683 8.84004C2.90867 8.8609 2.72018 9.08808 2.74156 9.31643C2.76295 9.54479 2.99033 9.73292 3.21839 9.71096H12.7879C13.0177 9.71444 13.2291 9.50561 13.2291 9.2755C13.2291 9.04539 13.0177 8.83674 12.7879 8.84004H3.21839C3.19128 8.83743 3.16393 8.83743 3.13683 8.84004ZM1.39692 11.8882C1.16876 11.9091 0.980272 12.1362 1.00166 12.3646C1.02304 12.5929 1.25042 12.7811 1.47848 12.7591H10.178C10.4079 12.7626 10.6193 12.5538 10.6193 12.3236C10.6193 12.0935 10.4079 11.8849 10.178 11.8882H1.47848C1.45137 11.8856 1.42403 11.8856 1.39692 11.8882ZM27.1421 14.5009H37.5816V23.6454H35.8417C35.8371 23.6453 35.8326 23.6453 35.8281 23.6454C35.6089 21.6917 33.9354 20.1618 31.9269 20.1618C29.9191 20.1618 28.2595 21.6928 28.0393 23.6454C28.0302 23.6451 28.0211 23.6451 28.0121 23.6454H14.0928C14.0838 23.6451 14.0747 23.6451 14.0656 23.6454C13.8454 21.6928 12.1858 20.1618 10.178 20.1618C8.17022 20.1618 6.51063 21.6928 6.29041 23.6454C6.28135 23.6451 6.27228 23.6451 6.26322 23.6454H3.65336C3.65419 21.6129 3.65336 19.5763 3.65336 17.549H26.7071C26.9349 17.549 27.1421 17.3416 27.1421 17.1136C27.1432 16.2417 27.1421 15.3678 27.1421 14.5009H27.1421ZM10.178 21.0326C11.8648 21.0326 13.2229 22.3922 13.2229 24.0808C13.2229 25.7694 11.8648 27.129 10.178 27.129C8.49125 27.129 7.13318 25.7694 7.13318 24.0808C7.13318 22.3922 8.49125 21.0326 10.178 21.0326ZM31.9269 21.0326C33.6136 21.0326 34.9717 22.3922 34.9717 24.0808C34.9717 25.7694 33.6136 27.129 31.9269 27.129C30.2401 27.129 28.882 25.7694 28.882 24.0808C28.882 22.3922 30.2401 21.0326 31.9269 21.0326Z"/>
</mask>
<path d="M3.13683 1.00196C2.93743 1.04006 2.77983 1.23423 2.78341 1.43742V3.17922C2.78014 3.40927 2.98856 3.62087 3.21839 3.62087C3.44821 3.62087 3.65661 3.40927 3.65336 3.17922V1.87287H15.3977C15.6275 1.87592 15.8389 1.66747 15.8389 1.43742C15.8389 1.20736 15.6275 0.998737 15.3977 1.00196H3.21839C3.19128 0.999347 3.16393 0.999347 3.13683 1.00196ZM17.926 1.00196C17.6983 1.02334 17.5105 1.25024 17.5318 1.47824C17.5532 1.70624 17.7798 1.89425 18.0076 1.87287H26.2722C26.2717 6.87488 26.2721 12.29 26.2722 16.6782H3.65336V15.3719C3.66321 15.1201 3.41374 14.8911 3.16401 14.9228C2.95034 14.9498 2.77502 15.1565 2.78341 15.3719C2.78263 18.2755 2.78341 21.1721 2.78341 24.0809C2.78341 24.3089 2.99063 24.5163 3.21839 24.5163H6.26323C6.27228 24.5167 6.28135 24.5167 6.29041 24.5163C6.51064 26.4688 8.17022 27.9999 10.178 27.9999C12.1813 27.9999 13.8394 26.4761 14.0656 24.5299C14.0748 24.5255 14.0839 24.5212 14.0928 24.5164H28.0121C28.0211 24.5167 28.0302 24.5167 28.0393 24.5164C28.2595 26.4688 29.9191 28 31.9269 28C33.9347 28 35.5943 26.4688 35.8145 24.5164C35.8235 24.5167 35.8326 24.5167 35.8417 24.5164H38.0165C38.2443 24.5164 38.4515 24.3089 38.4515 24.0809V14.0656C38.4525 13.9737 38.4235 13.8817 38.37 13.8071L32.3075 5.53336C32.2263 5.42323 32.0908 5.35538 31.9541 5.35645H27.1421V1.43742C27.1421 1.20942 26.9349 1.00198 26.7071 1.00196C23.7826 1.00196 20.8444 1.00196 17.926 1.00196ZM1.39692 5.7919C1.16876 5.81276 0.980272 6.03994 1.00166 6.26829C1.02304 6.49665 1.25042 6.68478 1.47848 6.66282H10.178C10.4079 6.6663 10.6193 6.45747 10.6193 6.22736C10.6193 5.99725 10.4079 5.7886 10.178 5.7919H1.47848C1.45137 5.78929 1.42403 5.78929 1.39692 5.7919ZM27.1421 6.22736H31.7366L37.1602 13.63H27.1421V6.22736ZM3.13683 8.84004C2.90867 8.8609 2.72018 9.08808 2.74156 9.31643C2.76295 9.54479 2.99033 9.73292 3.21839 9.71096H12.7879C13.0177 9.71444 13.2291 9.50561 13.2291 9.2755C13.2291 9.04539 13.0177 8.83674 12.7879 8.84004H3.21839C3.19128 8.83743 3.16393 8.83743 3.13683 8.84004ZM1.39692 11.8882C1.16876 11.9091 0.980272 12.1362 1.00166 12.3646C1.02304 12.5929 1.25042 12.7811 1.47848 12.7591H10.178C10.4079 12.7626 10.6193 12.5538 10.6193 12.3236C10.6193 12.0935 10.4079 11.8849 10.178 11.8882H1.47848C1.45137 11.8856 1.42403 11.8856 1.39692 11.8882ZM27.1421 14.5009H37.5816V23.6454H35.8417C35.8371 23.6453 35.8326 23.6453 35.8281 23.6454C35.6089 21.6917 33.9354 20.1618 31.9269 20.1618C29.9191 20.1618 28.2595 21.6928 28.0393 23.6454C28.0302 23.6451 28.0211 23.6451 28.0121 23.6454H14.0928C14.0838 23.6451 14.0747 23.6451 14.0656 23.6454C13.8454 21.6928 12.1858 20.1618 10.178 20.1618C8.17022 20.1618 6.51063 21.6928 6.29041 23.6454C6.28135 23.6451 6.27228 23.6451 6.26322 23.6454H3.65336C3.65419 21.6129 3.65336 19.5763 3.65336 17.549H26.7071C26.9349 17.549 27.1421 17.3416 27.1421 17.1136C27.1432 16.2417 27.1421 15.3678 27.1421 14.5009H27.1421ZM10.178 21.0326C11.8648 21.0326 13.2229 22.3922 13.2229 24.0808C13.2229 25.7694 11.8648 27.129 10.178 27.129C8.49125 27.129 7.13318 25.7694 7.13318 24.0808C7.13318 22.3922 8.49125 21.0326 10.178 21.0326ZM31.9269 21.0326C33.6136 21.0326 34.9717 22.3922 34.9717 24.0808C34.9717 25.7694 33.6136 27.129 31.9269 27.129C30.2401 27.129 28.882 25.7694 28.882 24.0808C28.882 22.3922 30.2401 21.0326 31.9269 21.0326Z" fill="#5259F3"/>
<path d="M3.13683 1.00196C2.93743 1.04006 2.77983 1.23423 2.78341 1.43742V3.17922C2.78014 3.40927 2.98856 3.62087 3.21839 3.62087C3.44821 3.62087 3.65661 3.40927 3.65336 3.17922V1.87287H15.3977C15.6275 1.87592 15.8389 1.66747 15.8389 1.43742C15.8389 1.20736 15.6275 0.998737 15.3977 1.00196H3.21839C3.19128 0.999347 3.16393 0.999347 3.13683 1.00196ZM17.926 1.00196C17.6983 1.02334 17.5105 1.25024 17.5318 1.47824C17.5532 1.70624 17.7798 1.89425 18.0076 1.87287H26.2722C26.2717 6.87488 26.2721 12.29 26.2722 16.6782H3.65336V15.3719C3.66321 15.1201 3.41374 14.8911 3.16401 14.9228C2.95034 14.9498 2.77502 15.1565 2.78341 15.3719C2.78263 18.2755 2.78341 21.1721 2.78341 24.0809C2.78341 24.3089 2.99063 24.5163 3.21839 24.5163H6.26323C6.27228 24.5167 6.28135 24.5167 6.29041 24.5163C6.51064 26.4688 8.17022 27.9999 10.178 27.9999C12.1813 27.9999 13.8394 26.4761 14.0656 24.5299C14.0748 24.5255 14.0839 24.5212 14.0928 24.5164H28.0121C28.0211 24.5167 28.0302 24.5167 28.0393 24.5164C28.2595 26.4688 29.9191 28 31.9269 28C33.9347 28 35.5943 26.4688 35.8145 24.5164C35.8235 24.5167 35.8326 24.5167 35.8417 24.5164H38.0165C38.2443 24.5164 38.4515 24.3089 38.4515 24.0809V14.0656C38.4525 13.9737 38.4235 13.8817 38.37 13.8071L32.3075 5.53336C32.2263 5.42323 32.0908 5.35538 31.9541 5.35645H27.1421V1.43742C27.1421 1.20942 26.9349 1.00198 26.7071 1.00196C23.7826 1.00196 20.8444 1.00196 17.926 1.00196ZM1.39692 5.7919C1.16876 5.81276 0.980272 6.03994 1.00166 6.26829C1.02304 6.49665 1.25042 6.68478 1.47848 6.66282H10.178C10.4079 6.6663 10.6193 6.45747 10.6193 6.22736C10.6193 5.99725 10.4079 5.7886 10.178 5.7919H1.47848C1.45137 5.78929 1.42403 5.78929 1.39692 5.7919ZM27.1421 6.22736H31.7366L37.1602 13.63H27.1421V6.22736ZM3.13683 8.84004C2.90867 8.8609 2.72018 9.08808 2.74156 9.31643C2.76295 9.54479 2.99033 9.73292 3.21839 9.71096H12.7879C13.0177 9.71444 13.2291 9.50561 13.2291 9.2755C13.2291 9.04539 13.0177 8.83674 12.7879 8.84004H3.21839C3.19128 8.83743 3.16393 8.83743 3.13683 8.84004ZM1.39692 11.8882C1.16876 11.9091 0.980272 12.1362 1.00166 12.3646C1.02304 12.5929 1.25042 12.7811 1.47848 12.7591H10.178C10.4079 12.7626 10.6193 12.5538 10.6193 12.3236C10.6193 12.0935 10.4079 11.8849 10.178 11.8882H1.47848C1.45137 11.8856 1.42403 11.8856 1.39692 11.8882ZM27.1421 14.5009H37.5816V23.6454H35.8417C35.8371 23.6453 35.8326 23.6453 35.8281 23.6454C35.6089 21.6917 33.9354 20.1618 31.9269 20.1618C29.9191 20.1618 28.2595 21.6928 28.0393 23.6454C28.0302 23.6451 28.0211 23.6451 28.0121 23.6454H14.0928C14.0838 23.6451 14.0747 23.6451 14.0656 23.6454C13.8454 21.6928 12.1858 20.1618 10.178 20.1618C8.17022 20.1618 6.51063 21.6928 6.29041 23.6454C6.28135 23.6451 6.27228 23.6451 6.26322 23.6454H3.65336C3.65419 21.6129 3.65336 19.5763 3.65336 17.549H26.7071C26.9349 17.549 27.1421 17.3416 27.1421 17.1136C27.1432 16.2417 27.1421 15.3678 27.1421 14.5009H27.1421ZM10.178 21.0326C11.8648 21.0326 13.2229 22.3922 13.2229 24.0808C13.2229 25.7694 11.8648 27.129 10.178 27.129C8.49125 27.129 7.13318 25.7694 7.13318 24.0808C7.13318 22.3922 8.49125 21.0326 10.178 21.0326ZM31.9269 21.0326C33.6136 21.0326 34.9717 22.3922 34.9717 24.0808C34.9717 25.7694 33.6136 27.129 31.9269 27.129C30.2401 27.129 28.882 25.7694 28.882 24.0808C28.882 22.3922 30.2401 21.0326 31.9269 21.0326Z" stroke="#5259F3" stroke-width="0.6" mask="url(#path-1-outside-1)"/>
</svg>
