<svg width="31" height="34" viewBox="0 0 31 34" fill="none" xmlns="http://www.w3.org/2000/svg">
<mask id="path-1-outside-1" maskUnits="userSpaceOnUse" x="0" y="-0.152222" width="31" height="34" fill="black">
<rect fill="white" y="-0.152222" width="31" height="34"/>
<path d="M1 32.623C1 32.7436 1.05765 32.8569 1.15515 32.9276C1.25266 32.9983 1.37817 33.0184 1.49305 32.9816L5.24797 31.7632L9.00288 32.9816C9.07852 33.0061 9.15988 33.0061 9.23551 32.9816L12.9876 31.7632L16.7363 32.9811C16.8124 33.0065 16.8935 33.0061 16.9692 32.9816L20.72 31.7632L24.47 32.9816C24.508 32.9938 24.5473 33 24.5863 33C24.6648 33 24.7427 32.975 24.8077 32.928C24.9054 32.8569 24.9631 32.7436 24.9631 32.623V16.9868H29.3024C29.5105 16.9868 29.6791 16.818 29.6791 16.6099V3.58573C29.6791 2.07591 28.4537 0.847778 26.9475 0.847778H3.73795C2.22813 0.847778 1 2.07591 1 3.58573V32.623ZM26.9475 1.60166C28.0383 1.60166 28.9257 2.49169 28.9257 3.58573V16.2329H24.9631V3.58573C24.9631 2.49169 25.8533 1.60166 26.9475 1.60166ZM1.75348 3.58573C1.75348 2.49169 2.64371 1.60166 3.73795 1.60166H25.0628C25.0551 1.60897 25.0485 1.61728 25.0409 1.62466C25.0044 1.66013 24.9701 1.69756 24.9356 1.73502C24.9095 1.76336 24.8829 1.79103 24.858 1.82044C24.8251 1.85925 24.7948 1.90001 24.7641 1.94061C24.7408 1.97135 24.7168 2.00137 24.6949 2.03311C24.6658 2.07512 24.6396 2.11902 24.6129 2.16268C24.5927 2.19562 24.5715 2.22776 24.5527 2.2616C24.5276 2.30677 24.5058 2.35376 24.4832 2.40045C24.4665 2.43497 24.4485 2.46864 24.4333 2.50396C24.4123 2.55248 24.3949 2.60274 24.3768 2.65267C24.3638 2.68826 24.3492 2.72296 24.3377 2.75922C24.3211 2.81168 24.3085 2.8658 24.295 2.91956C24.286 2.955 24.2752 2.9896 24.2676 3.02557C24.2549 3.08654 24.2468 3.14912 24.2382 3.21149C24.2341 3.24159 24.2276 3.27087 24.2245 3.30128C24.2148 3.3948 24.2096 3.48968 24.2096 3.58573V16.6099V32.1046L20.8363 31.0085C20.7607 30.984 20.6793 30.984 20.6037 31.0085L16.8529 32.2269L13.1041 31.0089C13.028 30.9836 12.9469 30.984 12.8713 31.0085L9.1192 32.2269L5.36428 31.0085C5.32646 30.9963 5.28722 30.9901 5.24797 30.9901C5.20872 30.9901 5.16947 30.9963 5.13166 31.0085L1.75348 32.1046V3.58573Z"/>
</mask>
<path d="M1 32.623C1 32.7436 1.05765 32.8569 1.15515 32.9276C1.25266 32.9983 1.37817 33.0184 1.49305 32.9816L5.24797 31.7632L9.00288 32.9816C9.07852 33.0061 9.15988 33.0061 9.23551 32.9816L12.9876 31.7632L16.7363 32.9811C16.8124 33.0065 16.8935 33.0061 16.9692 32.9816L20.72 31.7632L24.47 32.9816C24.508 32.9938 24.5473 33 24.5863 33C24.6648 33 24.7427 32.975 24.8077 32.928C24.9054 32.8569 24.9631 32.7436 24.9631 32.623V16.9868H29.3024C29.5105 16.9868 29.6791 16.818 29.6791 16.6099V3.58573C29.6791 2.07591 28.4537 0.847778 26.9475 0.847778H3.73795C2.22813 0.847778 1 2.07591 1 3.58573V32.623ZM26.9475 1.60166C28.0383 1.60166 28.9257 2.49169 28.9257 3.58573V16.2329H24.9631V3.58573C24.9631 2.49169 25.8533 1.60166 26.9475 1.60166ZM1.75348 3.58573C1.75348 2.49169 2.64371 1.60166 3.73795 1.60166H25.0628C25.0551 1.60897 25.0485 1.61728 25.0409 1.62466C25.0044 1.66013 24.9701 1.69756 24.9356 1.73502C24.9095 1.76336 24.8829 1.79103 24.858 1.82044C24.8251 1.85925 24.7948 1.90001 24.7641 1.94061C24.7408 1.97135 24.7168 2.00137 24.6949 2.03311C24.6658 2.07512 24.6396 2.11902 24.6129 2.16268C24.5927 2.19562 24.5715 2.22776 24.5527 2.2616C24.5276 2.30677 24.5058 2.35376 24.4832 2.40045C24.4665 2.43497 24.4485 2.46864 24.4333 2.50396C24.4123 2.55248 24.3949 2.60274 24.3768 2.65267C24.3638 2.68826 24.3492 2.72296 24.3377 2.75922C24.3211 2.81168 24.3085 2.8658 24.295 2.91956C24.286 2.955 24.2752 2.9896 24.2676 3.02557C24.2549 3.08654 24.2468 3.14912 24.2382 3.21149C24.2341 3.24159 24.2276 3.27087 24.2245 3.30128C24.2148 3.3948 24.2096 3.48968 24.2096 3.58573V16.6099V32.1046L20.8363 31.0085C20.7607 30.984 20.6793 30.984 20.6037 31.0085L16.8529 32.2269L13.1041 31.0089C13.028 30.9836 12.9469 30.984 12.8713 31.0085L9.1192 32.2269L5.36428 31.0085C5.32646 30.9963 5.28722 30.9901 5.24797 30.9901C5.20872 30.9901 5.16947 30.9963 5.13166 31.0085L1.75348 32.1046V3.58573Z" fill="#5259F3"/>
<path d="M1 32.623C1 32.7436 1.05765 32.8569 1.15515 32.9276C1.25266 32.9983 1.37817 33.0184 1.49305 32.9816L5.24797 31.7632L9.00288 32.9816C9.07852 33.0061 9.15988 33.0061 9.23551 32.9816L12.9876 31.7632L16.7363 32.9811C16.8124 33.0065 16.8935 33.0061 16.9692 32.9816L20.72 31.7632L24.47 32.9816C24.508 32.9938 24.5473 33 24.5863 33C24.6648 33 24.7427 32.975 24.8077 32.928C24.9054 32.8569 24.9631 32.7436 24.9631 32.623V16.9868H29.3024C29.5105 16.9868 29.6791 16.818 29.6791 16.6099V3.58573C29.6791 2.07591 28.4537 0.847778 26.9475 0.847778H3.73795C2.22813 0.847778 1 2.07591 1 3.58573V32.623ZM26.9475 1.60166C28.0383 1.60166 28.9257 2.49169 28.9257 3.58573V16.2329H24.9631V3.58573C24.9631 2.49169 25.8533 1.60166 26.9475 1.60166ZM1.75348 3.58573C1.75348 2.49169 2.64371 1.60166 3.73795 1.60166H25.0628C25.0551 1.60897 25.0485 1.61728 25.0409 1.62466C25.0044 1.66013 24.9701 1.69756 24.9356 1.73502C24.9095 1.76336 24.8829 1.79103 24.858 1.82044C24.8251 1.85925 24.7948 1.90001 24.7641 1.94061C24.7408 1.97135 24.7168 2.00137 24.6949 2.03311C24.6658 2.07512 24.6396 2.11902 24.6129 2.16268C24.5927 2.19562 24.5715 2.22776 24.5527 2.2616C24.5276 2.30677 24.5058 2.35376 24.4832 2.40045C24.4665 2.43497 24.4485 2.46864 24.4333 2.50396C24.4123 2.55248 24.3949 2.60274 24.3768 2.65267C24.3638 2.68826 24.3492 2.72296 24.3377 2.75922C24.3211 2.81168 24.3085 2.8658 24.295 2.91956C24.286 2.955 24.2752 2.9896 24.2676 3.02557C24.2549 3.08654 24.2468 3.14912 24.2382 3.21149C24.2341 3.24159 24.2276 3.27087 24.2245 3.30128C24.2148 3.3948 24.2096 3.48968 24.2096 3.58573V16.6099V32.1046L20.8363 31.0085C20.7607 30.984 20.6793 30.984 20.6037 31.0085L16.8529 32.2269L13.1041 31.0089C13.028 30.9836 12.9469 30.984 12.8713 31.0085L9.1192 32.2269L5.36428 31.0085C5.32646 30.9963 5.28722 30.9901 5.24797 30.9901C5.20872 30.9901 5.16947 30.9963 5.13166 31.0085L1.75348 32.1046V3.58573Z" stroke="#5259F3" mask="url(#path-1-outside-1)"/>
<mask id="path-2-outside-2" maskUnits="userSpaceOnUse" x="4.03857" y="23.6581" width="14" height="3" fill="black">
<rect fill="white" x="4.03857" y="23.6581" width="14" height="3"/>
<path d="M5.41531 25.412H16.1727C16.3808 25.412 16.5494 25.2432 16.5494 25.0351C16.5494 24.827 16.3808 24.6581 16.1727 24.6581H5.41531C5.20722 24.6581 5.03857 24.827 5.03857 25.0351C5.03857 25.2432 5.20722 25.412 5.41531 25.412Z"/>
</mask>
<path d="M5.41531 25.412H16.1727C16.3808 25.412 16.5494 25.2432 16.5494 25.0351C16.5494 24.827 16.3808 24.6581 16.1727 24.6581H5.41531C5.20722 24.6581 5.03857 24.827 5.03857 25.0351C5.03857 25.2432 5.20722 25.412 5.41531 25.412Z" fill="#5259F3"/>
<path d="M5.41531 25.412H16.1727C16.3808 25.412 16.5494 25.2432 16.5494 25.0351C16.5494 24.827 16.3808 24.6581 16.1727 24.6581H5.41531C5.20722 24.6581 5.03857 24.827 5.03857 25.0351C5.03857 25.2432 5.20722 25.412 5.41531 25.412Z" stroke="#5259F3" mask="url(#path-2-outside-2)"/>
<mask id="path-3-outside-3" maskUnits="userSpaceOnUse" x="4.03857" y="19.4456" width="17" height="3" fill="black">
<rect fill="white" x="4.03857" y="19.4456" width="17" height="3"/>
<path d="M5.41531 21.1994H19.6192C19.8273 21.1994 19.9959 21.0306 19.9959 20.8225C19.9959 20.6144 19.8273 20.4456 19.6192 20.4456H5.41531C5.20722 20.4456 5.03857 20.6144 5.03857 20.8225C5.03857 21.0306 5.20722 21.1994 5.41531 21.1994Z"/>
</mask>
<path d="M5.41531 21.1994H19.6192C19.8273 21.1994 19.9959 21.0306 19.9959 20.8225C19.9959 20.6144 19.8273 20.4456 19.6192 20.4456H5.41531C5.20722 20.4456 5.03857 20.6144 5.03857 20.8225C5.03857 21.0306 5.20722 21.1994 5.41531 21.1994Z" fill="#5259F3"/>
<path d="M5.41531 21.1994H19.6192C19.8273 21.1994 19.9959 21.0306 19.9959 20.8225C19.9959 20.6144 19.8273 20.4456 19.6192 20.4456H5.41531C5.20722 20.4456 5.03857 20.6144 5.03857 20.8225C5.03857 21.0306 5.20722 21.1994 5.41531 21.1994Z" stroke="#5259F3" mask="url(#path-3-outside-3)"/>
<mask id="path-4-outside-4" maskUnits="userSpaceOnUse" x="4.03857" y="15.233" width="14" height="3" fill="black">
<rect fill="white" x="4.03857" y="15.233" width="14" height="3"/>
<path d="M5.41531 16.9869H16.1727C16.3808 16.9869 16.5494 16.818 16.5494 16.6099C16.5494 16.4018 16.3808 16.233 16.1727 16.233H5.41531C5.20722 16.233 5.03857 16.4018 5.03857 16.6099C5.03857 16.818 5.20722 16.9869 5.41531 16.9869Z"/>
</mask>
<path d="M5.41531 16.9869H16.1727C16.3808 16.9869 16.5494 16.818 16.5494 16.6099C16.5494 16.4018 16.3808 16.233 16.1727 16.233H5.41531C5.20722 16.233 5.03857 16.4018 5.03857 16.6099C5.03857 16.818 5.20722 16.9869 5.41531 16.9869Z" fill="#5259F3"/>
<path d="M5.41531 16.9869H16.1727C16.3808 16.9869 16.5494 16.818 16.5494 16.6099C16.5494 16.4018 16.3808 16.233 16.1727 16.233H5.41531C5.20722 16.233 5.03857 16.4018 5.03857 16.6099C5.03857 16.818 5.20722 16.9869 5.41531 16.9869Z" stroke="#5259F3" mask="url(#path-4-outside-4)"/>
<mask id="path-5-outside-5" maskUnits="userSpaceOnUse" x="4.03857" y="11.0204" width="18" height="3" fill="black">
<rect fill="white" x="4.03857" y="11.0204" width="18" height="3"/>
<path d="M5.41531 12.7743H20.3974C20.6055 12.7743 20.7741 12.6054 20.7741 12.3973C20.7741 12.1892 20.6055 12.0204 20.3974 12.0204H5.41531C5.20722 12.0204 5.03857 12.1892 5.03857 12.3973C5.03857 12.6054 5.20722 12.7743 5.41531 12.7743Z"/>
</mask>
<path d="M5.41531 12.7743H20.3974C20.6055 12.7743 20.7741 12.6054 20.7741 12.3973C20.7741 12.1892 20.6055 12.0204 20.3974 12.0204H5.41531C5.20722 12.0204 5.03857 12.1892 5.03857 12.3973C5.03857 12.6054 5.20722 12.7743 5.41531 12.7743Z" fill="#5259F3"/>
<path d="M5.41531 12.7743H20.3974C20.6055 12.7743 20.7741 12.6054 20.7741 12.3973C20.7741 12.1892 20.6055 12.0204 20.3974 12.0204H5.41531C5.20722 12.0204 5.03857 12.1892 5.03857 12.3973C5.03857 12.6054 5.20722 12.7743 5.41531 12.7743Z" stroke="#5259F3" mask="url(#path-5-outside-5)"/>
<mask id="path-6-outside-6" maskUnits="userSpaceOnUse" x="4.03857" y="6.80774" width="16" height="3" fill="black">
<rect fill="white" x="4.03857" y="6.80774" width="16" height="3"/>
<path d="M5.41531 8.56163H19.0255C19.2336 8.56163 19.4023 8.39278 19.4023 8.18468C19.4023 7.97659 19.2336 7.80774 19.0255 7.80774H5.41531C5.20722 7.80774 5.03857 7.97659 5.03857 8.18468C5.03857 8.39278 5.20722 8.56163 5.41531 8.56163Z"/>
</mask>
<path d="M5.41531 8.56163H19.0255C19.2336 8.56163 19.4023 8.39278 19.4023 8.18468C19.4023 7.97659 19.2336 7.80774 19.0255 7.80774H5.41531C5.20722 7.80774 5.03857 7.97659 5.03857 8.18468C5.03857 8.39278 5.20722 8.56163 5.41531 8.56163Z" fill="#5259F3"/>
<path d="M5.41531 8.56163H19.0255C19.2336 8.56163 19.4023 8.39278 19.4023 8.18468C19.4023 7.97659 19.2336 7.80774 19.0255 7.80774H5.41531C5.20722 7.80774 5.03857 7.97659 5.03857 8.18468C5.03857 8.39278 5.20722 8.56163 5.41531 8.56163Z" stroke="#5259F3" mask="url(#path-6-outside-6)"/>
</svg>
