<svg width="32" height="32" viewBox="0 0 32 32" fill="none" xmlns="http://www.w3.org/2000/svg">
<path d="M8.5 15.4118L13.3529 20.2647L27.3235 6.29412C29.6765 8.79412 31 12.6176 31 16C31 24.2353 24.2353 31 16 31C7.76471 31 1 24.2353 1 16C1 7.76471 7.76471 1 16 1C18.6471 1 21.1471 1.73529 23.5 3.05882L22.9118 3.94118C20.8529 2.61765 18.3529 2.02941 16 2.02941C8.20588 2.02941 2.02941 8.20588 2.02941 16C2.02941 23.6471 8.20588 29.9706 16 29.9706C23.6471 29.9706 29.9706 23.6471 29.9706 16C29.9706 13.0588 28.9412 10.1176 27.3235 7.76471L13.3529 21.7353L7.76471 16.1471L8.5 15.4118Z" fill="#5259F3" stroke="#5259F3"/>
</svg>
