<svg width="39" height="29" viewBox="0 0 39 29" fill="none" xmlns="http://www.w3.org/2000/svg">
<path d="M3.12237 0.852008L3.12244 0.852652C3.15654 0.849364 3.19091 0.849133 3.22505 0.85196H15.3968H15.3977V1.00196C15.6275 0.998737 15.8389 1.20736 15.8389 1.43742C15.8389 1.66747 15.6275 1.87592 15.3977 1.87287L3.12237 0.852008ZM3.12237 0.852008L3.10867 0.854626C2.83796 0.906359 2.62929 1.16312 2.63341 1.43863V3.17824L3.12237 0.852008ZM17.926 0.8513V0.85196H17.9431H17.9602H17.9773H17.9944H18.0115H18.0287H18.0458H18.0629H18.08H18.0971H18.1142H18.1313H18.1484H18.1655H18.1826H18.1997H18.2168H18.2339H18.251H18.2681H18.2852H18.3023H18.3195H18.3366H18.3537H18.3708H18.3879H18.405H18.4221H18.4392H18.4563H18.4735H18.4906H18.5077H18.5248H18.5419H18.559H18.5761H18.5933H18.6104H18.6275H18.6446H18.6617H18.6788H18.696H18.7131H18.7302H18.7473H18.7644H18.7816H18.7987H18.8158H18.8329H18.85H18.8672H18.8843H18.9014H18.9185H18.9357H18.9528H18.9699H18.987H19.0042H19.0213H19.0384H19.0555H19.0727H19.0898H19.1069H19.124H19.1412H19.1583H19.1754H19.1926H19.2097H19.2268H19.2439H19.2611H19.2782H19.2953H19.3125H19.3296H19.3467H19.3639H19.381H19.3981H19.4153H19.4324H19.4495H19.4667H19.4838H19.5009H19.5181H19.5352H19.5523H19.5695H19.5866H19.6038H19.6209H19.638H19.6552H19.6723H19.6894H19.7066H19.7237H19.7409H19.758H19.7751H19.7923H19.8094H19.8266H19.8437H19.8608H19.878H19.8951H19.9123H19.9294H19.9466H19.9637H19.9808H19.998H20.0151H20.0323H20.0494H20.0666H20.0837H20.1009H20.118H20.1351H20.1523H20.1694H20.1866H20.2037H20.2209H20.238H20.2552H20.2723H20.2895H20.3066H20.3238H20.3409H20.3581H20.3752H20.3924H20.4095H20.4267H20.4438H20.461H20.4781H20.4953H20.5124H20.5296H20.5467H20.5639H20.581H20.5982H20.6153H20.6325H20.6496H20.6668H20.6839H20.7011H20.7182H20.7354H20.7526H20.7697H20.7869H20.804H20.8212H20.8383H20.8555H20.8726H20.8898H20.9069H20.9241H20.9413H20.9584H20.9756H20.9927H21.0099H21.027H21.0442H21.0614H21.0785H21.0957H21.1128H21.13H21.1472H21.1643H21.1815H21.1986H21.2158H21.2329H21.2501H21.2673H21.2844H21.3016H21.3187H21.3359H21.3531H21.3702H21.3874H21.4046H21.4217H21.4389H21.456H21.4732H21.4904H21.5075H21.5247H21.5418H21.559H21.5762H21.5933H21.6105H21.6277H21.6448H21.662H21.6791H21.6963H21.7135H21.7306H21.7478H21.765H21.7821H21.7993H21.8165H21.8336H21.8508H21.868H21.8851H21.9023H21.9194H21.9366H21.9538H21.9709H21.9881H22.0053H22.0224H22.0396H22.0568H22.0739H22.0911H22.1083H22.1254H22.1426H22.1598H22.1769H22.1941H22.2113H22.2284H22.2456H22.2628H22.2799H22.2971H22.3143H22.3314H22.3486H22.3658H22.3829H22.4001H22.4173H22.4344H22.4516H22.4688H22.4859H22.5031H22.5203H22.5374H22.5546H22.5718H22.5889H22.6061H22.6233H22.6404H22.6576H22.6748H22.692H22.7091H22.7263H22.7435H22.7606H22.7778H22.795H22.8121H22.8293H22.8465H22.8636H22.8808H22.898H22.9151H22.9323H22.9495H22.9666H22.9838H23.001H23.0182H23.0353H23.0525H23.0697H23.0868H23.104H23.1212H23.1383H23.1555H23.1727H23.1898H23.207H23.2242H23.2413H23.2585H23.2757H23.2928H23.31H23.3272H23.3444H23.3615H23.3787H23.3959H23.413H23.4302H23.4474H23.4645H23.4817H23.4989H23.516H23.5332H23.5504H23.5675H23.5847H23.6019H23.619H23.6362H23.6534H23.6706H23.6877H23.7049H23.7221H23.7392H23.7564H23.7736H23.7907H23.8079H23.8251H23.8422H23.8594H23.8766H23.8937H23.9109H23.9281H23.9452H23.9624H23.9796H23.9967H24.0139H24.0311H24.0482H24.0654H24.0826H24.0997H24.1169H24.1341H24.1512H24.1684H24.1856H24.2027H24.2199H24.2371H24.2542H24.2714H24.2886H24.3057H24.3229H24.34H24.3572H24.3744H24.3915H24.4087H24.4259H24.443H24.4602H24.4774H24.4945H24.5117H24.5289H24.546H24.5632H24.5803H24.5975H24.6147H24.6318H24.649H24.6662H24.6833H24.7005H24.7176H24.7348H24.752H24.7691H24.7863H24.8035H24.8206H24.8378H24.8549H24.8721H24.8893H24.9064H24.9236H24.9407H24.9579H24.9751H24.9922H25.0094H25.0265H25.0437H25.0609H25.078H25.0952H25.1123H25.1295H25.1467H25.1638H25.181H25.1981H25.2153H25.2324H25.2496H25.2668H25.2839H25.3011H25.3182H25.3354H25.3525H25.3697H25.3869H25.404H25.4212H25.4383H25.4555H25.4726H25.4898H25.5069H25.5241H25.5412H25.5584H25.5756H25.5927H25.6099H25.627H25.6442H25.6613H25.6785H25.6956H25.7128H25.7299H25.7471H25.7642H25.7814H25.7985H25.8157H25.8328H25.85H25.8671H25.8843H25.9014H25.9186H25.9357H25.9529H25.97H25.9872H26.0043H26.0215H26.0386H26.0558H26.0729H26.0901H26.1072H26.1243H26.1415H26.1586H26.1758H26.1929H26.2101H26.2272H26.2444H26.2615H26.2786H26.2958H26.3129H26.3301H26.3472H26.3644H26.3815H26.3986H26.4158H26.4329H26.4501H26.4672H26.4843H26.5015H26.5186H26.5358H26.5529H26.57H26.5872H26.6043H26.6215H26.6386H26.6557H26.6729H26.69H26.7072C27.0179 0.851989 27.2921 1.12673 27.2921 1.43742V5.20645H31.9536H31.9541V5.35645C32.0908 5.35538 32.2263 5.42323 32.3075 5.53336L17.926 0.8513ZM17.926 0.8513L17.912 0.852616M17.926 0.8513L17.912 0.852616M3.14521 14.774C2.85542 14.8106 2.62379 15.0826 2.63341 15.3745C2.63289 17.3088 2.63306 19.2399 2.63324 21.1736C2.63332 22.1418 2.63341 23.1107 2.63341 24.0809C2.63342 24.3916 2.90764 24.6663 3.21836 24.6663H6.15861C6.44596 26.6291 8.13824 28.1499 10.178 28.1499C12.2178 28.1499 13.9117 26.6294 14.199 24.6664H27.9075C28.1948 26.6292 29.8871 28.15 31.9269 28.15C33.9666 28.15 35.6589 26.6292 35.9463 24.6664H38.0165C38.3273 24.6663 38.6015 24.3916 38.6015 24.0809V14.0659V14.0656H38.4515L3.16401 14.9228M3.14521 14.774L3.16401 14.9228M3.14521 14.774C3.14519 14.774 3.14517 14.774 3.14515 14.774L3.16401 14.9228M3.14521 14.774C3.32148 14.7517 3.48875 14.8216 3.60745 14.9305C3.72546 15.0388 3.80919 15.1983 3.80336 15.3746M3.16401 14.9228C3.41374 14.8911 3.66321 15.1201 3.65336 15.3719M3.80336 15.3746V15.3719H3.65336M3.80336 15.3746C3.80333 15.3756 3.80329 15.3767 3.80325 15.3778L3.65336 15.3719M3.80336 15.3746L3.65336 15.3719M26.1222 16.5282C26.1222 16.5784 26.1222 16.6284 26.1222 16.6782L26.2722 16.6782L26.1222 16.5282ZM26.1222 16.5282H26.2722H26.1222ZM17.912 0.852616C17.6017 0.881755 17.3534 1.18191 17.3825 1.49223M17.912 0.852616L17.3825 1.49223M17.3825 1.49223C17.4113 1.80005 17.7064 2.04729 18.014 2.02287L17.3825 1.49223ZM1.38288 5.64256C1.07212 5.6712 0.823215 5.97159 0.852311 6.28228M1.38288 5.64256C1.41687 5.6393 1.45112 5.63909 1.48514 5.6419H10.1771H10.178V5.7919C10.4079 5.7886 10.6193 5.99725 10.6193 6.22736L0.852311 6.28228M1.38288 5.64256C1.38276 5.64257 1.38265 5.64258 1.38253 5.64259L1.39692 5.7919L1.38326 5.64253C1.38314 5.64254 1.38301 5.64255 1.38288 5.64256ZM0.852311 6.28228C0.881178 6.59053 1.17705 6.83791 1.48509 6.81282H10.177L0.852311 6.28228ZM3.12279 8.6907C2.81203 8.71934 2.56312 9.01973 2.59222 9.33042M3.12279 8.6907C3.15678 8.68745 3.19103 8.68723 3.22505 8.69004H12.7869H12.7879V8.84004C13.0177 8.83674 13.2291 9.04539 13.2291 9.2755L2.59222 9.33042M3.12279 8.6907C3.12267 8.69071 3.12255 8.69073 3.12243 8.69074L3.13683 8.84004L3.12317 8.69067C3.12304 8.69068 3.12292 8.69069 3.12279 8.6907ZM2.59222 9.33042C2.62109 9.63868 2.91696 9.88605 3.225 9.86096H12.7868L2.59222 9.33042ZM1.38274 11.7389C1.07206 11.7676 0.823219 12.0679 0.852311 12.3786M1.38274 11.7389C1.41678 11.7356 1.45108 11.7354 1.48515 11.7382H10.177H10.178V11.8882C10.4079 11.8849 10.6193 12.0935 10.6193 12.3236L0.852311 12.3786M1.38274 11.7389C1.38267 11.7389 1.3826 11.7389 1.38253 11.7389L1.39692 11.8882L1.38326 11.7388C1.38309 11.7389 1.38291 11.7389 1.38274 11.7389ZM0.852311 12.3786C0.881178 12.6868 1.17705 12.9342 1.48509 12.9091H10.177L0.852311 12.3786ZM3.80336 2.02287H15.3968L2.78341 3.17922C2.78014 3.40927 2.98856 3.62087 3.21839 3.62087C3.44821 3.62087 3.65661 3.40927 3.65336 3.17922H3.80336V3.17825V2.02287ZM3.65336 16.6782V16.5282H3.80336V16.6782H3.65336ZM26.1222 2.02287H26.2722C26.2722 1.97283 26.2722 1.92283 26.2722 1.87287H26.1222C26.1222 1.92283 26.1222 1.97283 26.1222 2.02287ZM27.2921 6.37736H31.6605L36.8643 13.48H27.2921V6.37736ZM27.2921 14.6509H37.4316V23.4954H35.9599C35.6729 21.5308 33.9667 20.0118 31.9269 20.0118C29.8871 20.0118 28.1948 21.5325 27.9075 23.4954H14.1974C13.9101 21.5325 12.2178 20.0118 10.178 20.0118C8.13824 20.0118 6.44596 21.5325 6.15861 23.4954H3.80342C3.8039 22.1897 3.80372 20.8824 3.80354 19.5772C3.80346 18.9505 3.80337 18.3244 3.80336 17.699H26.7071C27.0178 17.699 27.292 17.4244 27.2921 17.1138C27.2928 16.5319 27.2926 15.9492 27.2923 15.3683C27.2923 15.1288 27.2922 14.8896 27.2921 14.6509ZM10.178 21.1826C11.7818 21.1826 13.0729 22.4749 13.0729 24.0808C13.0729 25.6867 11.7818 26.979 10.178 26.979C8.57425 26.979 7.28318 25.6867 7.28318 24.0808C7.28318 22.4749 8.57424 21.1826 10.178 21.1826ZM31.9269 21.1826C33.5306 21.1826 34.8217 22.4749 34.8217 24.0808C34.8217 25.6867 33.5306 26.979 31.9269 26.979C30.3231 26.979 29.032 25.6867 29.032 24.0808C29.032 22.4749 30.3231 21.1826 31.9269 21.1826Z" fill="#52F3AF" stroke="#52F3AF" stroke-width="0.3"/>
</svg>
